<svg width="297" height="77" viewBox="0 0 297 77" fill="none" xmlns="http://www.w3.org/2000/svg">
<path d="M6.33045 55.3707V15.4573H29.7336L28.9163 19.6802H11.6704V32.4307H27.0364L26.2191 36.6536H11.6704V55.3707H6.33045ZM58.5857 52.9187C57.8955 53.4091 57.0963 53.845 56.1882 54.2265C55.2982 54.5897 54.3719 54.8985 53.4092 55.1528C52.4466 55.4071 51.4749 55.5978 50.494 55.7249C49.5314 55.852 48.6323 55.9156 47.7968 55.9156C45.9442 55.9156 44.1824 55.6068 42.5114 54.9893C40.8404 54.3718 39.3782 53.4636 38.125 52.2648C36.8717 51.0661 35.8727 49.5858 35.1281 47.824C34.3834 46.044 34.011 44.0006 34.011 41.6939C34.011 39.3145 34.4015 37.1531 35.1825 35.2097C35.9817 33.2662 37.0443 31.6134 38.3702 30.2512C39.6961 28.8708 41.2218 27.8082 42.9473 27.0635C44.6909 26.3188 46.5163 25.9465 48.4235 25.9465C49.9673 25.9465 51.4022 26.2099 52.7281 26.7366C54.0722 27.2452 55.2346 28.0171 56.2154 29.0524C57.2144 30.0877 57.9954 31.3863 58.5585 32.9484C59.1215 34.4922 59.403 36.2995 59.403 38.3701C59.403 38.7878 59.3849 39.2873 59.3486 39.8685C59.3122 40.4497 59.2396 41.0582 59.1306 41.6939H39.4055C39.4055 43.2559 39.6779 44.6545 40.2228 45.8896C40.7859 47.1065 41.5669 48.1418 42.5658 48.9955C43.583 49.831 44.7908 50.4667 46.1894 50.9026C47.5879 51.3385 49.1318 51.5565 50.821 51.5565C51.2387 51.5565 51.7473 51.5383 52.3467 51.502C52.9461 51.4657 53.5909 51.393 54.2811 51.284C54.9713 51.175 55.6887 51.0207 56.4334 50.8209C57.1781 50.6029 57.8955 50.3214 58.5857 49.9763V52.9187ZM54.499 38.479C54.499 37.1168 54.3083 35.918 53.9269 34.8827C53.5454 33.8293 53.0278 32.9484 52.3739 32.24C51.7201 31.5316 50.9572 30.9958 50.0854 30.6326C49.2317 30.2693 48.3145 30.0877 47.3337 30.0877C46.2439 30.0877 45.2177 30.3147 44.255 30.7688C43.2924 31.2047 42.4478 31.8041 41.7213 32.5669C41.0129 33.3298 40.4498 34.2198 40.0321 35.2369C39.6143 36.2541 39.4055 37.3348 39.4055 38.479H54.499ZM70.0012 30.6326H64.1709L64.6068 27.9626C66.0235 27.672 67.1587 27.3087 68.0124 26.8728C68.866 26.4187 69.5653 25.8557 70.1102 25.1836C70.6733 24.5116 71.1364 23.7033 71.4997 22.7589C71.8811 21.7962 72.3079 20.6519 72.7802 19.326H75.1777V26.4914H85.6397L84.5499 30.6326H75.1777V46.7614C75.1777 47.6332 75.3049 48.3779 75.5591 48.9955C75.8316 49.5949 76.2039 50.0853 76.6762 50.4667C77.1484 50.8481 77.7205 51.1296 78.3926 51.3113C79.0646 51.4747 79.8093 51.5565 80.6266 51.5565C81.4621 51.5565 82.2886 51.4838 83.1059 51.3385C83.9414 51.175 84.7315 50.9571 85.4762 50.6846V53.6271C84.3319 54.3718 83.1241 54.9439 81.8527 55.3435C80.5994 55.7249 79.3189 55.9156 78.0112 55.9156C76.7942 55.9156 75.6954 55.7431 74.7145 55.398C73.7337 55.0529 72.8892 54.5534 72.1808 53.8995C71.4906 53.2456 70.9548 52.4374 70.5734 51.4747C70.1919 50.4939 70.0012 49.3769 70.0012 48.1236V30.6326ZM112.966 52.9187C111.84 53.7905 110.496 54.508 108.934 55.071C107.39 55.6341 105.701 55.9156 103.866 55.9156C101.905 55.9156 100.125 55.5796 98.5264 54.9076C96.9462 54.2174 95.593 53.2638 94.4669 52.0469C93.3408 50.83 92.469 49.3769 91.8514 47.6877C91.2521 45.9804 90.9524 44.1187 90.9524 42.1026C90.9524 39.7595 91.352 37.5981 92.1511 35.6183C92.9503 33.6386 94.0401 31.9312 95.4205 30.4964C96.819 29.0615 98.4628 27.9444 100.352 27.1453C102.241 26.3461 104.266 25.9465 106.427 25.9465C106.936 25.9465 107.481 25.9737 108.062 26.0282C108.661 26.0646 109.252 26.1372 109.833 26.2462C110.414 26.3552 110.977 26.4914 111.522 26.6549C112.067 26.8002 112.548 26.9818 112.966 27.1997L111.876 31.7224L111.277 31.9948C110.914 31.7224 110.496 31.4681 110.024 31.232C109.57 30.9958 109.079 30.796 108.552 30.6326C108.044 30.4691 107.508 30.342 106.945 30.2512C106.4 30.1422 105.864 30.0877 105.338 30.0877C104.121 30.0877 102.967 30.3329 101.877 30.8233C100.806 31.2955 99.8614 31.9948 99.044 32.9211C98.2267 33.8293 97.5819 34.9554 97.1097 36.2995C96.6374 37.6254 96.4013 39.142 96.4013 40.8493C96.4013 42.593 96.6465 44.1278 97.1369 45.4537C97.6455 46.7796 98.3357 47.8966 99.2075 48.8048C100.079 49.7129 101.115 50.4031 102.313 50.8754C103.512 51.3294 104.811 51.5565 106.209 51.5565C107.045 51.5565 108.053 51.4566 109.234 51.2568C110.414 51.0388 111.658 50.612 112.966 49.9763V52.9187ZM121.03 11.7248H126.207V31.1775C126.861 30.5962 127.587 29.9969 128.387 29.3793C129.186 28.7618 130.048 28.1987 130.975 27.6902C131.901 27.1816 132.873 26.7638 133.89 26.4369C134.907 26.11 135.961 25.9465 137.05 25.9465C138.358 25.9465 139.539 26.2008 140.592 26.7093C141.664 27.1997 142.581 27.899 143.344 28.8072C144.107 29.6972 144.688 30.7779 145.088 32.0493C145.505 33.3026 145.714 34.7011 145.714 36.245V55.3707H140.538V36.6809C140.538 35.6274 140.383 34.7011 140.074 33.9019C139.784 33.1028 139.375 32.4398 138.848 31.9131C138.34 31.3682 137.722 30.9686 136.996 30.7143C136.269 30.4419 135.488 30.3056 134.653 30.3056C133.127 30.3056 131.683 30.7052 130.321 31.5044C128.959 32.3036 127.587 33.357 126.207 34.6648V55.3707H121.03V11.7248ZM154.814 26.4914H161.489L162.524 31.3137C163.16 30.7325 163.868 30.1331 164.649 29.5155C165.43 28.8798 166.257 28.2986 167.128 27.7719C168 27.2452 168.908 26.8092 169.853 26.4641C170.816 26.119 171.787 25.9465 172.768 25.9465C173.694 25.9465 174.575 26.0918 175.411 26.3824C176.246 26.673 177 27.0726 177.672 27.5812C178.362 28.0716 178.962 28.6528 179.47 29.3248C179.997 29.9969 180.406 30.7143 180.696 31.4772C181.423 30.8596 182.177 30.2239 182.958 29.57C183.739 28.9162 184.565 28.3259 185.437 27.7991C186.309 27.2542 187.226 26.8092 188.189 26.4641C189.169 26.119 190.214 25.9465 191.322 25.9465C192.684 25.9465 193.91 26.2099 195 26.7366C196.09 27.2633 197.016 27.9808 197.779 28.8889C198.542 29.7971 199.123 30.8687 199.522 32.1038C199.94 33.3389 200.149 34.6648 200.149 36.0815V55.3707H192.112V37.0896C192.112 36.2541 192.003 35.5003 191.785 34.8283C191.567 34.1562 191.249 33.5841 190.831 33.1118C190.432 32.6396 189.95 32.2763 189.387 32.0221C188.824 31.7678 188.198 31.6406 187.507 31.6406C186.944 31.6406 186.409 31.7224 185.9 31.8858C185.391 32.0493 184.883 32.2763 184.374 32.5669C183.884 32.8394 183.394 33.1754 182.903 33.575C182.413 33.9746 181.913 34.4014 181.405 34.8555C181.459 35.2369 181.486 35.6456 181.486 36.0815V55.3707H173.449V37.0896C173.449 36.2541 173.331 35.5003 173.095 34.8283C172.877 34.1562 172.559 33.5841 172.141 33.1118C171.742 32.6396 171.261 32.2763 170.697 32.0221C170.134 31.7678 169.508 31.6406 168.818 31.6406C168.273 31.6406 167.746 31.7224 167.237 31.8858C166.747 32.0493 166.257 32.2763 165.766 32.5669C165.276 32.8394 164.785 33.1754 164.295 33.575C163.823 33.9564 163.341 34.3742 162.851 34.8283V55.3707H154.814V26.4914ZM224.478 51.1478C223.97 51.5837 223.371 52.0832 222.68 52.6463C222.008 53.1912 221.264 53.7088 220.446 54.1992C219.629 54.6714 218.748 55.071 217.804 55.398C216.859 55.7431 215.869 55.9156 214.834 55.9156C213.69 55.9156 212.645 55.6977 211.701 55.2617C210.774 54.8258 209.984 54.2446 209.33 53.5181C208.677 52.7734 208.168 51.9107 207.805 50.9298C207.46 49.949 207.287 48.9228 207.287 47.8512C207.287 46.5616 207.569 45.3265 208.132 44.1459C208.695 42.9472 209.585 41.8937 210.802 40.9855C212.037 40.0774 213.635 39.3599 215.597 38.8332C217.558 38.2883 219.938 38.0159 222.735 38.0159H224.26V36.0543C224.26 34.5104 223.77 33.3207 222.789 32.4852C221.827 31.6497 220.546 31.232 218.948 31.232C218.294 31.232 217.595 31.3137 216.85 31.4772C216.105 31.6225 215.361 31.8404 214.616 32.131C213.889 32.4035 213.172 32.7304 212.464 33.1118C211.773 33.4751 211.138 33.8747 210.556 34.3106L210.066 34.0382L208.622 28.8889C210.892 27.781 213.018 27.0181 214.997 26.6004C216.995 26.1645 218.911 25.9465 220.746 25.9465C222.453 25.9465 224.015 26.119 225.432 26.4641C226.867 26.7911 228.084 27.3178 229.083 28.0443C230.1 28.7527 230.89 29.679 231.453 30.8233C232.016 31.9676 232.298 33.348 232.298 34.9645V47.4425C232.298 47.7513 232.316 48.0692 232.352 48.3961C232.407 48.723 232.507 49.0227 232.652 49.2952C232.797 49.5676 232.997 49.7947 233.251 49.9763C233.506 50.1398 233.842 50.2215 234.259 50.2215C234.514 50.2215 234.795 50.1942 235.104 50.1398C235.413 50.0853 235.74 49.9854 236.085 49.8401V53.4908C234.995 54.2537 233.905 54.8531 232.815 55.289C231.744 55.7067 230.699 55.9156 229.682 55.9156C228.956 55.9156 228.32 55.7885 227.775 55.5342C227.23 55.2981 226.749 54.9711 226.331 54.5534C225.913 54.1356 225.55 53.6362 225.241 53.0549C224.951 52.4737 224.696 51.838 224.478 51.1478ZM224.26 41.2852H222.871C221.2 41.2852 219.838 41.4033 218.784 41.6394C217.749 41.8755 216.941 42.2116 216.36 42.6475C215.778 43.0652 215.379 43.5647 215.161 44.1459C214.943 44.7271 214.834 45.3538 214.834 46.0258C214.834 46.7342 214.934 47.3517 215.134 47.8784C215.333 48.4052 215.606 48.8411 215.951 49.1862C216.314 49.5313 216.732 49.7947 217.204 49.9763C217.676 50.1398 218.185 50.2215 218.73 50.2215C219.511 50.2215 220.346 50.0399 221.236 49.6766C222.144 49.3133 223.153 48.6231 224.26 47.606V41.2852ZM243.386 31.7769H237.583L238.128 28.2078C239.091 27.9172 239.917 27.6266 240.607 27.336C241.316 27.0454 241.924 26.7275 242.433 26.3824C242.959 26.0191 243.413 25.6286 243.795 25.2109C244.195 24.775 244.567 24.2755 244.912 23.7124C245.257 23.1494 245.602 22.5046 245.947 21.7781C246.292 21.0515 246.683 20.216 247.119 19.2716H251.042V26.4914H261.34L260.087 31.7769H251.423V45.3719C251.423 47.1519 251.896 48.4052 252.84 49.1317C253.803 49.8582 255.147 50.2215 256.872 50.2215C257.617 50.2215 258.362 50.1579 259.106 50.0308C259.869 49.9036 260.596 49.7038 261.286 49.4314V53.1094C259.96 54.0539 258.516 54.7623 256.954 55.2345C255.41 55.6886 253.848 55.9156 252.268 55.9156C250.76 55.9156 249.444 55.7067 248.318 55.289C247.21 54.8531 246.283 54.2355 245.539 53.4364C244.812 52.6372 244.267 51.6655 243.904 50.5212C243.559 49.3769 243.386 48.0782 243.386 46.6252V31.7769ZM292.045 52.5373C291.155 53.173 290.22 53.7088 289.239 54.1447C288.258 54.5625 287.268 54.9076 286.269 55.18C285.27 55.4343 284.28 55.6159 283.3 55.7249C282.319 55.852 281.383 55.9156 280.493 55.9156C278.314 55.9156 276.325 55.6068 274.527 54.9893C272.729 54.3718 271.185 53.4636 269.895 52.2648C268.606 51.0661 267.607 49.6039 266.898 47.8784C266.19 46.1348 265.836 44.1459 265.836 41.9119C265.836 39.4417 266.254 37.2258 267.089 35.2642C267.943 33.2844 269.078 31.6043 270.495 30.2239C271.911 28.8435 273.546 27.79 275.399 27.0635C277.27 26.3188 279.222 25.9465 281.256 25.9465C282.982 25.9465 284.58 26.2189 286.051 26.7638C287.523 27.3087 288.794 28.1261 289.866 29.2159C290.937 30.2875 291.773 31.6225 292.372 33.2208C292.972 34.8192 293.271 36.6718 293.271 38.7787C293.271 39.3963 293.244 39.9957 293.189 40.5769C293.135 41.1399 293.062 41.6576 292.972 42.1298H274.118C274.118 43.4921 274.354 44.6817 274.827 45.6989C275.317 46.716 275.998 47.5606 276.87 48.2326C277.76 48.9047 278.822 49.4041 280.058 49.7311C281.311 50.058 282.691 50.2215 284.199 50.2215C284.689 50.2215 285.243 50.2033 285.861 50.167C286.478 50.1307 287.132 50.0671 287.822 49.9763C288.512 49.8673 289.212 49.722 289.92 49.5404C290.647 49.3587 291.355 49.1317 292.045 48.8593V52.5373ZM285.915 38.8332C285.915 37.5618 285.77 36.4539 285.479 35.5094C285.189 34.5467 284.789 33.7475 284.28 33.1118C283.772 32.4761 283.173 32.0039 282.482 31.6951C281.792 31.3863 281.047 31.232 280.248 31.232C279.358 31.232 278.541 31.4136 277.796 31.7769C277.052 32.1401 276.407 32.6578 275.862 33.3298C275.317 34.0018 274.89 34.801 274.581 35.7273C274.273 36.6536 274.118 37.6889 274.118 38.8332H285.915Z" fill="#2EC4B6"/>
</svg>
