<svg width="450" height="120" viewBox="0 0 450 120" fill="none" xmlns="http://www.w3.org/2000/svg">
<path d="M159.939 77V37.0866H183.342L182.525 41.3095H165.279V54.06H180.645L179.828 58.2829H165.279V77H159.939ZM212.195 74.548C211.504 75.0384 210.705 75.4743 209.797 75.8557C208.907 76.219 207.981 76.5278 207.018 76.782C206.055 77.0363 205.084 77.227 204.103 77.3542C203.14 77.4813 202.241 77.5449 201.406 77.5449C199.553 77.5449 197.791 77.2361 196.12 76.6186C194.449 76.001 192.987 75.0929 191.734 73.8941C190.481 72.6953 189.482 71.2151 188.737 69.4532C187.992 67.6732 187.62 65.6299 187.62 63.3232C187.62 60.9438 188.01 58.7824 188.791 56.839C189.591 54.8955 190.653 53.2427 191.979 51.8804C193.305 50.5 194.831 49.4375 196.556 48.6928C198.3 47.9481 200.125 47.5758 202.032 47.5758C203.576 47.5758 205.011 47.8391 206.337 48.3659C207.681 48.8744 208.844 49.6464 209.824 50.6817C210.823 51.717 211.604 53.0156 212.167 54.5776C212.73 56.1215 213.012 57.9287 213.012 59.9993C213.012 60.4171 212.994 60.9166 212.957 61.4978C212.921 62.079 212.848 62.6875 212.739 63.3232H193.014C193.014 64.8852 193.287 66.2838 193.832 67.5189C194.395 68.7358 195.176 69.7711 196.175 70.6247C197.192 71.4603 198.4 72.096 199.798 72.5319C201.197 72.9678 202.741 73.1857 204.43 73.1857C204.848 73.1857 205.356 73.1676 205.956 73.1313C206.555 73.0949 207.2 73.0223 207.89 72.9133C208.58 72.8043 209.298 72.6499 210.042 72.4501C210.787 72.2322 211.504 71.9507 212.195 71.6056V74.548ZM208.108 60.1083C208.108 58.7461 207.917 57.5473 207.536 56.512C207.154 55.4586 206.637 54.5776 205.983 53.8693C205.329 53.1609 204.566 52.6251 203.694 52.2618C202.841 51.8986 201.923 51.717 200.943 51.717C199.853 51.717 198.827 51.944 197.864 52.3981C196.901 52.834 196.057 53.4334 195.33 54.1962C194.622 54.9591 194.059 55.8491 193.641 56.8662C193.223 57.8833 193.014 58.964 193.014 60.1083H208.108ZM223.61 52.2618H217.78L218.216 49.5919C219.632 49.3013 220.768 48.938 221.621 48.5021C222.475 48.048 223.174 47.485 223.719 46.8129C224.282 46.1409 224.745 45.3326 225.109 44.3881C225.49 43.4255 225.917 42.2812 226.389 40.9553H228.787V48.1207H239.249L238.159 52.2618H228.787V68.3907C228.787 69.2625 228.914 70.0072 229.168 70.6247C229.44 71.2241 229.813 71.7145 230.285 72.096C230.757 72.4774 231.329 72.7589 232.001 72.9405C232.674 73.104 233.418 73.1857 234.236 73.1857C235.071 73.1857 235.897 73.1131 236.715 72.9678C237.55 72.8043 238.34 72.5864 239.085 72.3139V75.2563C237.941 76.001 236.733 76.5732 235.462 76.9728C234.208 77.3542 232.928 77.5449 231.62 77.5449C230.403 77.5449 229.304 77.3723 228.323 77.0272C227.343 76.6821 226.498 76.1827 225.79 75.5288C225.099 74.8749 224.564 74.0667 224.182 73.104C223.801 72.1232 223.61 71.0062 223.61 69.7529V52.2618ZM266.575 74.548C265.449 75.4198 264.105 76.1373 262.543 76.7003C260.999 77.2634 259.31 77.5449 257.475 77.5449C255.514 77.5449 253.734 77.2089 252.135 76.5368C250.555 75.8466 249.202 74.8931 248.076 73.6762C246.95 72.4592 246.078 71.0062 245.46 69.317C244.861 67.6097 244.561 65.748 244.561 63.7319C244.561 61.3888 244.961 59.2274 245.76 57.2476C246.559 55.2678 247.649 53.5605 249.029 52.1256C250.428 50.6907 252.072 49.5737 253.961 48.7745C255.85 47.9754 257.875 47.5758 260.036 47.5758C260.545 47.5758 261.09 47.603 261.671 47.6575C262.27 47.6938 262.861 47.7665 263.442 47.8755C264.023 47.9844 264.586 48.1207 265.131 48.2841C265.676 48.4294 266.157 48.6111 266.575 48.829L265.485 53.3516L264.886 53.6241C264.523 53.3516 264.105 53.0974 263.633 52.8612C263.178 52.6251 262.688 52.4253 262.161 52.2618C261.653 52.0984 261.117 51.9712 260.554 51.8804C260.009 51.7714 259.473 51.717 258.946 51.717C257.73 51.717 256.576 51.9622 255.486 52.4526C254.415 52.9248 253.47 53.6241 252.653 54.5504C251.836 55.4586 251.191 56.5847 250.719 57.9287C250.246 59.2546 250.01 60.7713 250.01 62.4786C250.01 64.2223 250.255 65.757 250.746 67.0829C251.254 68.4089 251.945 69.5259 252.816 70.434C253.688 71.3422 254.724 72.0324 255.922 72.5046C257.121 72.9587 258.42 73.1857 259.818 73.1857C260.654 73.1857 261.662 73.0859 262.842 72.8861C264.023 72.6681 265.267 72.2413 266.575 71.6056V74.548ZM274.639 33.3541H279.816V52.8067C280.47 52.2255 281.196 51.6261 281.995 51.0086C282.795 50.391 283.657 49.828 284.584 49.3194C285.51 48.8109 286.482 48.3931 287.499 48.0662C288.516 47.7392 289.569 47.5758 290.659 47.5758C291.967 47.5758 293.148 47.83 294.201 48.3386C295.273 48.829 296.19 49.5283 296.953 50.4365C297.716 51.3264 298.297 52.4072 298.696 53.6786C299.114 54.9318 299.323 56.3304 299.323 57.8742V77H294.147V58.3102C294.147 57.2567 293.992 56.3304 293.683 55.5312C293.393 54.732 292.984 54.0691 292.457 53.5423C291.949 52.9975 291.331 52.5979 290.605 52.3436C289.878 52.0711 289.097 51.9349 288.262 51.9349C286.736 51.9349 285.292 52.3345 283.93 53.1337C282.568 53.9329 281.196 54.9863 279.816 56.2941V77H274.639V33.3541ZM308.423 48.1207H315.098L316.133 52.943C316.769 52.3617 317.477 51.7624 318.258 51.1448C319.039 50.5091 319.866 49.9279 320.737 49.4012C321.609 48.8744 322.517 48.4385 323.462 48.0934C324.424 47.7483 325.396 47.5758 326.377 47.5758C327.303 47.5758 328.184 47.7211 329.02 48.0117C329.855 48.3023 330.609 48.7019 331.281 49.2104C331.971 49.7008 332.571 50.2821 333.079 50.9541C333.606 51.6261 334.015 52.3436 334.305 53.1064C335.032 52.4889 335.785 51.8532 336.566 51.1993C337.347 50.5454 338.174 49.9551 339.046 49.4284C339.918 48.8835 340.835 48.4385 341.797 48.0934C342.778 47.7483 343.823 47.5758 344.931 47.5758C346.293 47.5758 347.519 47.8391 348.609 48.3659C349.698 48.8926 350.625 49.61 351.388 50.5182C352.15 51.4263 352.732 52.498 353.131 53.7331C353.549 54.9682 353.758 56.2941 353.758 57.7108V77H345.721V58.7188C345.721 57.8833 345.612 57.1296 345.394 56.4575C345.176 55.7855 344.858 55.2134 344.44 54.7411C344.041 54.2689 343.559 53.9056 342.996 53.6513C342.433 53.397 341.807 53.2699 341.116 53.2699C340.553 53.2699 340.017 53.3516 339.509 53.5151C339 53.6786 338.492 53.9056 337.983 54.1962C337.493 54.4687 337.002 54.8047 336.512 55.2043C336.022 55.6039 335.522 56.0307 335.014 56.4848C335.068 56.8662 335.095 57.2749 335.095 57.7108V77H327.058V58.7188C327.058 57.8833 326.94 57.1296 326.704 56.4575C326.486 55.7855 326.168 55.2134 325.75 54.7411C325.351 54.2689 324.869 53.9056 324.306 53.6513C323.743 53.397 323.117 53.2699 322.426 53.2699C321.882 53.2699 321.355 53.3516 320.846 53.5151C320.356 53.6786 319.866 53.9056 319.375 54.1962C318.885 54.4687 318.394 54.8047 317.904 55.2043C317.432 55.5857 316.95 56.0034 316.46 56.4575V77H308.423V48.1207ZM378.087 72.7771C377.579 73.213 376.979 73.7125 376.289 74.2755C375.617 74.8204 374.872 75.3381 374.055 75.8285C373.238 76.3007 372.357 76.7003 371.412 77.0272C370.468 77.3723 369.478 77.5449 368.443 77.5449C367.298 77.5449 366.254 77.3269 365.31 76.891C364.383 76.4551 363.593 75.8739 362.939 75.1474C362.285 74.4027 361.777 73.5399 361.414 72.5591C361.069 71.5783 360.896 70.5521 360.896 69.4805C360.896 68.1909 361.177 66.9558 361.741 65.7752C362.304 64.5764 363.194 63.523 364.411 62.6148C365.646 61.7067 367.244 60.9892 369.206 60.4625C371.167 59.9176 373.547 59.6452 376.344 59.6452H377.869V57.6835C377.869 56.1397 377.379 54.95 376.398 54.1145C375.436 53.279 374.155 52.8612 372.557 52.8612C371.903 52.8612 371.204 52.943 370.459 53.1064C369.714 53.2517 368.969 53.4697 368.225 53.7603C367.498 54.0328 366.781 54.3597 366.072 54.7411C365.382 55.1044 364.747 55.504 364.165 55.9399L363.675 55.6674L362.231 50.5182C364.501 49.4102 366.626 48.6474 368.606 48.2296C370.604 47.7937 372.52 47.5758 374.355 47.5758C376.062 47.5758 377.624 47.7483 379.041 48.0934C380.476 48.4204 381.693 48.9471 382.692 49.6736C383.709 50.382 384.499 51.3083 385.062 52.4526C385.625 53.5968 385.907 54.9772 385.907 56.5937V69.0718C385.907 69.3806 385.925 69.6984 385.961 70.0254C386.016 70.3523 386.115 70.652 386.261 70.9244C386.406 71.1969 386.606 71.4239 386.86 71.6056C387.114 71.769 387.45 71.8508 387.868 71.8508C388.122 71.8508 388.404 71.8235 388.713 71.769C389.022 71.7145 389.348 71.6146 389.694 71.4693V75.1201C388.604 75.883 387.514 76.4824 386.424 76.9183C385.353 77.336 384.308 77.5449 383.291 77.5449C382.565 77.5449 381.929 77.4178 381.384 77.1635C380.839 76.9273 380.358 76.6004 379.94 76.1827C379.522 75.7649 379.159 75.2654 378.85 74.6842C378.56 74.103 378.305 73.4673 378.087 72.7771ZM377.869 62.9145H376.48C374.809 62.9145 373.447 63.0326 372.393 63.2687C371.358 63.5048 370.55 63.8408 369.968 64.2767C369.387 64.6945 368.988 65.194 368.77 65.7752C368.552 66.3564 368.443 66.983 368.443 67.6551C368.443 68.3634 368.543 68.981 368.742 69.5077C368.942 70.0344 369.215 70.4704 369.56 70.8155C369.923 71.1606 370.341 71.4239 370.813 71.6056C371.285 71.769 371.794 71.8508 372.339 71.8508C373.12 71.8508 373.955 71.6691 374.845 71.3059C375.753 70.9426 376.761 70.2524 377.869 69.2353V62.9145ZM396.995 53.4061H391.192L391.737 49.8371C392.7 49.5465 393.526 49.2559 394.216 48.9652C394.925 48.6746 395.533 48.3568 396.042 48.0117C396.568 47.6484 397.022 47.2579 397.404 46.8402C397.803 46.4042 398.176 45.9048 398.521 45.3417C398.866 44.7786 399.211 44.1339 399.556 43.4073C399.901 42.6808 400.292 41.8453 400.728 40.9008H404.651V48.1207H414.949L413.696 53.4061H405.032V67.0012C405.032 68.7812 405.505 70.0344 406.449 70.761C407.412 71.4875 408.756 71.8508 410.481 71.8508C411.226 71.8508 411.971 71.7872 412.715 71.66C413.478 71.5329 414.205 71.3331 414.895 71.0607V74.7387C413.569 75.6832 412.125 76.3915 410.563 76.8638C409.019 77.3179 407.457 77.5449 405.877 77.5449C404.369 77.5449 403.053 77.336 401.926 76.9183C400.818 76.4824 399.892 75.8648 399.147 75.0656C398.421 74.2665 397.876 73.2947 397.513 72.1505C397.168 71.0062 396.995 69.7075 396.995 68.2545V53.4061ZM445.654 74.1666C444.764 74.8023 443.829 75.3381 442.848 75.774C441.867 76.1917 440.877 76.5368 439.878 76.8093C438.879 77.0636 437.889 77.2452 436.909 77.3542C435.928 77.4813 434.992 77.5449 434.102 77.5449C431.923 77.5449 429.934 77.2361 428.136 76.6186C426.338 76.001 424.794 75.0929 423.504 73.8941C422.215 72.6953 421.216 71.2332 420.507 69.5077C419.799 67.7641 419.445 65.7752 419.445 63.5411C419.445 61.071 419.862 58.8551 420.698 56.8934C421.552 54.9137 422.687 53.2336 424.104 51.8532C425.52 50.4728 427.155 49.4193 429.008 48.6928C430.878 47.9481 432.831 47.5758 434.865 47.5758C436.591 47.5758 438.189 47.8482 439.66 48.3931C441.131 48.938 442.403 49.7553 443.475 50.8451C444.546 51.9167 445.382 53.2517 445.981 54.8501C446.58 56.4484 446.88 58.3011 446.88 60.408C446.88 61.0255 446.853 61.6249 446.798 62.2061C446.744 62.7692 446.671 63.2869 446.58 63.7591H427.727C427.727 65.1213 427.963 66.311 428.435 67.3281C428.926 68.3453 429.607 69.1899 430.479 69.8619C431.369 70.5339 432.431 71.0334 433.666 71.3604C434.92 71.6873 436.3 71.8508 437.808 71.8508C438.298 71.8508 438.852 71.8326 439.47 71.7963C440.087 71.7599 440.741 71.6964 441.431 71.6056C442.121 71.4966 442.821 71.3513 443.529 71.1696C444.256 70.988 444.964 70.761 445.654 70.4885V74.1666ZM439.524 60.4625C439.524 59.1911 439.379 58.0831 439.088 57.1386C438.798 56.176 438.398 55.3768 437.889 54.7411C437.381 54.1054 436.781 53.6332 436.091 53.3244C435.401 53.0156 434.656 52.8612 433.857 52.8612C432.967 52.8612 432.15 53.0429 431.405 53.4061C430.66 53.7694 430.016 54.287 429.471 54.9591C428.926 55.6311 428.499 56.4303 428.19 57.3566C427.881 58.2829 427.727 59.3182 427.727 60.4625H439.524Z" fill="#FF9F1C"/>
<path fill-rule="evenodd" clip-rule="evenodd" d="M82.595 8.01175C83.036 7.59397 85.566 6.64235 91.2527 4.71591C95.686 3.23047 99.4927 2.00034 99.7248 2.00034C99.9569 1.97713 101.35 3.16084 102.882 4.62307C104.39 6.08531 105.876 7.33866 106.177 7.40829C106.479 7.47792 109.056 7.57075 111.864 7.59396C115.486 7.6448 116.979 7.55646 117.588 8.24725C118.092 8.81804 117.992 9.92078 117.992 12.0735C117.992 15.3693 117.969 15.6479 117.388 16.7852C116.437 18.6884 114.905 19.64 108.499 22.3092C106.595 23.0983 105.574 23.6786 104.854 24.3749C103.276 25.8835 103.369 26.4638 106.386 34.2392C111.4 47.1208 112.166 51.0665 112.189 63.5999C112.189 76.3655 111.957 77.3403 107.686 82.1216C105.713 84.3498 105.458 84.7211 105.226 85.9281C104.437 89.7345 106.758 98.6936 110.913 107.769L111.795 109.672H113.28C115.044 109.672 116.065 110.043 116.878 111.018C118.595 113.061 118.154 116.008 115.949 117.378C115.137 117.865 114.812 117.912 110.75 117.981C105.829 118.074 104.901 117.865 103.764 116.38C103.067 115.451 99.9337 108.488 97.9143 103.289C96.0806 98.6008 94.2702 92.9839 93.5042 89.5721C92.8775 86.7868 92.3901 82.5394 92.599 81.9359C92.6918 81.7502 92.6454 81.5878 92.5061 81.5878C92.3901 81.5878 92.2276 81.727 92.158 81.9127C92.0883 82.0752 91.2527 83.4214 90.3011 84.8836L88.5602 87.5296L89.3262 89.1079C92.3669 95.3746 91.2759 103.382 86.773 108.187C86.1231 108.883 85.6588 109.44 85.7285 109.44C85.771 109.454 86.4786 109.451 87.5193 109.446C88.1846 109.443 88.986 109.44 89.8369 109.44C92.0419 109.44 94.247 109.533 94.7344 109.672C96.8234 110.229 98.0768 111.784 98.0768 113.827C98.0768 115.683 96.893 117.262 95.0594 117.796C94.4791 117.981 89.4423 118.028 78.9972 117.981L63.7939 117.912L62.7262 117.378C61.496 116.774 59.9873 115.335 59.3606 114.175C59.0125 113.548 58.8036 113.386 58.4554 113.478C58.2001 113.548 56.8074 113.919 55.3683 114.291C42.2076 117.819 9.47989 117.146 3.51462 113.246C1.70416 112.086 1.49526 110.252 3.00398 108.999C4.86087 107.49 8.2497 107.049 23.1745 106.307C37.4957 105.61 43.5074 104.891 48.2657 103.382C51.7706 102.268 53.0008 101.015 53.0008 98.6008C53.0008 93.1696 57.0627 82.6554 62.7494 73.3482C63.6083 71.9324 68.088 63.2518 72.707 54.0374L81.0862 37.2797L81.1327 23.7482C81.1913 11.2879 81.1841 9.57531 82.024 8.57109C82.1822 8.38188 82.3705 8.21782 82.595 8.01175ZM104.104 9.45843C103.383 8.99203 102.662 8.30197 101.605 7.26903C100.328 6.01568 99.1677 4.99444 99.0517 5.01765C98.993 5.02216 98.8109 5.07102 98.5297 5.15582L104.014 9.44884L104.104 9.45843ZM114.916 10.6052L115.207 10.636V10.6113L114.916 10.6052ZM101.816 29.8378V30.6584L103.841 35.2989C103.695 34.9288 103.545 34.5525 103.392 34.1695C102.71 32.4572 102.189 31.0371 101.816 29.8378ZM92.4597 66.5482L91.946 75.5708C92.3992 73.7372 92.4597 71.4737 92.4597 66.6869C92.4597 66.6403 92.4597 66.5941 92.4597 66.5482ZM75.5524 82.5504H74.6468L75.6132 82.9528C75.5514 82.8151 75.5315 82.6868 75.5524 82.5504ZM78.5375 84.1703L79.2259 84.4569L83.1334 85.9463L86.064 90.2359L87.8345 94.168V99.8279L86.52 103.941C87.6517 101.941 88.2817 99.5025 88.2817 96.7904C88.2817 90.035 84.3277 84.9515 78.5375 84.1703ZM82.1958 108.232L84.6249 106.434C83.9041 107.147 83.0902 107.752 82.1958 108.232ZM84.115 32.1512L86.0029 32.9224H86.9182C86.1394 32.7826 85.3488 32.5076 84.3358 32.0574C84.2359 32.019 84.164 32.0315 84.115 32.1512ZM89.8774 32.9224H89.9104L89.9318 32.9146C89.9137 32.9172 89.8955 32.9198 89.8774 32.9224ZM93.1311 13.6193H92.841L91.9862 14.3342L92.841 17.6705L93.3905 22.3772V26.071L91.9862 28.752L89.483 30.1222H87.0801C87.5847 30.2333 88.1482 30.2677 88.7691 30.2238C90.9046 30.0846 92.0883 29.3883 93.0168 27.7403L93.7363 26.4638V22.8662C93.7131 19.8257 93.6435 18.9437 93.156 17.0637C92.8311 15.8568 92.599 14.6498 92.6454 14.3945C92.6847 14.0644 92.8731 13.7982 93.1311 13.6193ZM85.3781 29.2708L86.6563 30.0064C86.1649 29.844 85.7383 29.5982 85.3781 29.2708ZM84.3403 10.2867L96.7453 5.72894C92.6877 7.07199 84.7224 9.86547 84.4751 10.0775C84.4234 10.1217 84.3788 10.1836 84.3403 10.2867Z" fill="#FF9F1C" stroke="#FF9F1C" stroke-width="2.0384"/>
</svg>
