<svg width="297" height="77" viewBox="0 0 297 77" fill="none" xmlns="http://www.w3.org/2000/svg">
<path d="M6.0691 55.2349V15.3214H29.4723L28.6549 19.5444H11.4091V32.2949H26.775L25.9577 36.5178H11.4091V55.2349H6.0691ZM58.3244 52.7828C57.6342 53.2732 56.835 53.7092 55.9268 54.0906C55.0368 54.4538 54.1105 54.7626 53.1479 55.0169C52.1852 55.2712 51.2135 55.4619 50.2327 55.589C49.27 55.7162 48.371 55.7798 47.5355 55.7798C45.6828 55.7798 43.921 55.471 42.25 54.8534C40.579 54.2359 39.1169 53.3277 37.8636 52.129C36.6104 50.9302 35.6114 49.4499 34.8667 47.6881C34.122 45.9081 33.7497 43.8648 33.7497 41.558C33.7497 39.1787 34.1402 37.0173 34.9212 35.0738C35.7204 33.1304 36.7829 31.4775 38.1088 30.1153C39.4347 28.7349 40.9604 27.6723 42.6859 26.9277C44.4296 26.183 46.255 25.8106 48.1621 25.8106C49.706 25.8106 51.1408 26.074 52.4668 26.6007C53.8108 27.1093 54.9733 27.8812 55.9541 28.9165C56.953 29.9518 57.7341 31.2505 58.2971 32.8125C58.8602 34.3564 59.1417 36.1636 59.1417 38.2342C59.1417 38.6519 59.1235 39.1514 59.0872 39.7327C59.0509 40.3139 58.9782 40.9223 58.8693 41.558H39.1441C39.1441 43.1201 39.4166 44.5186 39.9615 45.7537C40.5245 46.9706 41.3055 48.0059 42.3045 48.8596C43.3216 49.6951 44.5295 50.3308 45.928 50.7667C47.3266 51.2027 48.8705 51.4206 50.5596 51.4206C50.9774 51.4206 51.4859 51.4024 52.0853 51.3661C52.6847 51.3298 53.3295 51.2571 54.0197 51.1482C54.7099 51.0392 55.4273 50.8848 56.172 50.685C56.9167 50.467 57.6342 50.1855 58.3244 49.8404V52.7828ZM54.2377 38.3432C54.2377 36.9809 54.0469 35.7822 53.6655 34.7469C53.2841 33.6934 52.7664 32.8125 52.1126 32.1041C51.4587 31.3958 50.6959 30.86 49.824 30.4967C48.9704 30.1334 48.0531 29.9518 47.0723 29.9518C45.9825 29.9518 44.9563 30.1789 43.9937 30.6329C43.031 31.0688 42.1864 31.6682 41.4599 32.4311C40.7516 33.1939 40.1885 34.0839 39.7707 35.1011C39.353 36.1182 39.1441 37.1989 39.1441 38.3432H54.2377ZM69.7399 30.4967H63.9095L64.3454 27.8267C65.7621 27.5361 66.8973 27.1729 67.751 26.7369C68.6047 26.2829 69.304 25.7198 69.8488 25.0478C70.4119 24.3757 70.8751 23.5675 71.2383 22.623C71.6198 21.6604 72.0466 20.5161 72.5188 19.1902H74.9164V26.3555H85.3783L84.2885 30.4967H74.9164V46.6256C74.9164 47.4974 75.0435 48.2421 75.2978 48.8596C75.5702 49.459 75.9426 49.9494 76.4148 50.3308C76.8871 50.7122 77.4592 50.9938 78.1312 51.1754C78.8033 51.3389 79.5479 51.4206 80.3653 51.4206C81.2008 51.4206 82.0272 51.348 82.8446 51.2027C83.6801 51.0392 84.4702 50.8212 85.2148 50.5488V53.4912C84.0706 54.2359 82.8627 54.808 81.5913 55.2076C80.338 55.589 79.0575 55.7798 77.7498 55.7798C76.5329 55.7798 75.434 55.6072 74.4532 55.2621C73.4724 54.917 72.6278 54.4175 71.9194 53.7637C71.2292 53.1098 70.6934 52.3015 70.312 51.3389C69.9306 50.3581 69.7399 49.241 69.7399 47.9878V30.4967ZM112.705 52.7828C111.579 53.6547 110.235 54.3721 108.672 54.9352C107.129 55.4982 105.439 55.7798 103.605 55.7798C101.643 55.7798 99.8634 55.4437 98.265 54.7717C96.6848 54.0815 95.3317 53.1279 94.2056 51.911C93.0795 50.6941 92.2076 49.241 91.5901 47.5519C90.9907 45.8445 90.691 43.9828 90.691 41.9667C90.691 39.6237 91.0906 37.4623 91.8898 35.4825C92.689 33.5027 93.7787 31.7954 95.1591 30.3605C96.5577 28.9256 98.2015 27.8086 100.09 27.0094C101.979 26.2102 104.005 25.8106 106.166 25.8106C106.675 25.8106 107.219 25.8379 107.801 25.8924C108.4 25.9287 108.99 26.0013 109.572 26.1103C110.153 26.2193 110.716 26.3555 111.261 26.519C111.806 26.6643 112.287 26.8459 112.705 27.0639L111.615 31.5865L111.016 31.8589C110.652 31.5865 110.235 31.3322 109.762 31.0961C109.308 30.86 108.818 30.6602 108.291 30.4967C107.782 30.3332 107.247 30.2061 106.684 30.1153C106.139 30.0063 105.603 29.9518 105.076 29.9518C103.859 29.9518 102.706 30.197 101.616 30.6874C100.544 31.1597 99.6 31.8589 98.7827 32.7853C97.9653 33.6934 97.3205 34.8195 96.8483 36.1636C96.3761 37.4895 96.1399 39.0061 96.1399 40.7135C96.1399 42.4571 96.3851 43.9919 96.8756 45.3178C97.3841 46.6437 98.0743 47.7607 98.9461 48.6689C99.818 49.5771 100.853 50.2673 102.052 50.7395C103.251 51.1936 104.549 51.4206 105.948 51.4206C106.784 51.4206 107.792 51.3207 108.972 51.1209C110.153 50.903 111.397 50.4761 112.705 49.8404V52.7828ZM120.769 11.5889H125.946V31.0416C126.599 30.4604 127.326 29.861 128.125 29.2435C128.924 28.6259 129.787 28.0629 130.713 27.5543C131.64 27.0457 132.611 26.628 133.629 26.301C134.646 25.9741 135.699 25.8106 136.789 25.8106C138.097 25.8106 139.277 26.0649 140.331 26.5735C141.402 27.0639 142.32 27.7632 143.082 28.6713C143.845 29.5613 144.427 30.642 144.826 31.9134C145.244 33.1667 145.453 34.5652 145.453 36.1091V55.2349H140.276V36.545C140.276 35.4916 140.122 34.5652 139.813 33.7661C139.523 32.9669 139.114 32.3039 138.587 31.7772C138.079 31.2323 137.461 30.8327 136.734 30.5784C136.008 30.306 135.227 30.1698 134.391 30.1698C132.866 30.1698 131.422 30.5694 130.06 31.3685C128.697 32.1677 127.326 33.2212 125.946 34.5289V55.2349H120.769V11.5889ZM154.553 26.3555H161.227L162.263 31.1778C162.898 30.5966 163.607 29.9972 164.388 29.3797C165.169 28.744 165.995 28.1628 166.867 27.636C167.739 27.1093 168.647 26.6734 169.592 26.3283C170.554 25.9832 171.526 25.8106 172.507 25.8106C173.433 25.8106 174.314 25.9559 175.149 26.2465C175.985 26.5372 176.739 26.9367 177.411 27.4453C178.101 27.9357 178.7 28.5169 179.209 29.189C179.736 29.861 180.144 30.5784 180.435 31.3413C181.161 30.7237 181.915 30.088 182.696 29.4342C183.477 28.7803 184.304 28.19 185.176 27.6633C186.047 27.1184 186.965 26.6734 187.927 26.3283C188.908 25.9832 189.952 25.8106 191.06 25.8106C192.423 25.8106 193.649 26.074 194.738 26.6007C195.828 27.1275 196.754 27.8449 197.517 28.7531C198.28 29.6612 198.861 30.7328 199.261 31.9679C199.679 33.203 199.888 34.5289 199.888 35.9456V55.2349H191.85V36.9537C191.85 36.1182 191.741 35.3644 191.524 34.6924C191.306 34.0204 190.988 33.4482 190.57 32.976C190.17 32.5037 189.689 32.1405 189.126 31.8862C188.563 31.6319 187.936 31.5048 187.246 31.5048C186.683 31.5048 186.147 31.5865 185.639 31.75C185.13 31.9134 184.622 32.1405 184.113 32.4311C183.623 32.7035 183.132 33.0395 182.642 33.4391C182.151 33.8387 181.652 34.2656 181.143 34.7196C181.198 35.1011 181.225 35.5097 181.225 35.9456V55.2349H173.188V36.9537C173.188 36.1182 173.07 35.3644 172.834 34.6924C172.616 34.0204 172.298 33.4482 171.88 32.976C171.481 32.5037 170.999 32.1405 170.436 31.8862C169.873 31.6319 169.246 31.5048 168.556 31.5048C168.011 31.5048 167.485 31.5865 166.976 31.75C166.486 31.9134 165.995 32.1405 165.505 32.4311C165.014 32.7035 164.524 33.0395 164.034 33.4391C163.561 33.8206 163.08 34.2383 162.59 34.6924V55.2349H154.553V26.3555ZM224.217 51.0119C223.709 51.4479 223.109 51.9473 222.419 52.5104C221.747 53.0553 221.002 53.5729 220.185 54.0633C219.368 54.5356 218.487 54.9352 217.542 55.2621C216.598 55.6072 215.608 55.7798 214.572 55.7798C213.428 55.7798 212.384 55.5618 211.439 55.1259C210.513 54.69 209.723 54.1088 209.069 53.3822C208.415 52.6375 207.907 51.7748 207.543 50.794C207.198 49.8132 207.026 48.787 207.026 47.7153C207.026 46.4258 207.307 45.1907 207.87 44.0101C208.433 42.8113 209.323 41.7578 210.54 40.8497C211.775 39.9415 213.374 39.2241 215.335 38.6974C217.297 38.1525 219.676 37.88 222.473 37.88H223.999V35.9184C223.999 34.3745 223.509 33.1849 222.528 32.3493C221.565 31.5138 220.285 31.0961 218.686 31.0961C218.033 31.0961 217.333 31.1778 216.589 31.3413C215.844 31.4866 215.099 31.7046 214.355 31.9952C213.628 32.2676 212.911 32.5945 212.202 32.976C211.512 33.3392 210.876 33.7388 210.295 34.1747L209.805 33.9023L208.361 28.7531C210.631 27.6451 212.756 26.8823 214.736 26.4645C216.734 26.0286 218.65 25.8106 220.485 25.8106C222.192 25.8106 223.754 25.9832 225.171 26.3283C226.606 26.6552 227.822 27.1819 228.821 27.9085C229.839 28.6168 230.629 29.5431 231.192 30.6874C231.755 31.8317 232.036 33.2121 232.036 34.8286V47.3067C232.036 47.6154 232.054 47.9333 232.091 48.2602C232.145 48.5872 232.245 48.8869 232.39 49.1593C232.536 49.4318 232.736 49.6588 232.99 49.8404C233.244 50.0039 233.58 50.0856 233.998 50.0856C234.252 50.0856 234.534 50.0584 234.843 50.0039C235.151 49.9494 235.478 49.8495 235.823 49.7042V53.355C234.734 54.1178 233.644 54.7172 232.554 55.1531C231.482 55.5709 230.438 55.7798 229.421 55.7798C228.694 55.7798 228.059 55.6526 227.514 55.3983C226.969 55.1622 226.487 54.8353 226.07 54.4175C225.652 53.9998 225.289 53.5003 224.98 52.9191C224.689 52.3378 224.435 51.7021 224.217 51.0119ZM223.999 41.1494H222.61C220.939 41.1494 219.576 41.2674 218.523 41.5036C217.488 41.7397 216.679 42.0757 216.098 42.5116C215.517 42.9294 215.117 43.4288 214.899 44.0101C214.681 44.5913 214.572 45.2179 214.572 45.8899C214.572 46.5983 214.672 47.2159 214.872 47.7426C215.072 48.2693 215.344 48.7052 215.69 49.0503C216.053 49.3954 216.471 49.6588 216.943 49.8404C217.415 50.0039 217.924 50.0856 218.468 50.0856C219.249 50.0856 220.085 49.904 220.975 49.5407C221.883 49.1775 222.891 48.4873 223.999 47.4701V41.1494ZM243.125 31.641H237.322L237.867 28.0719C238.829 27.7813 239.656 27.4907 240.346 27.2001C241.054 26.9095 241.663 26.5916 242.171 26.2465C242.698 25.8833 243.152 25.4928 243.534 25.075C243.933 24.6391 244.305 24.1396 244.651 23.5766C244.996 23.0135 245.341 22.3687 245.686 21.6422C246.031 20.9157 246.421 20.0802 246.857 19.1357H250.781V26.3555H261.079L259.826 31.641H251.162V45.2361C251.162 47.0161 251.634 48.2693 252.579 48.9958C253.541 49.7224 254.886 50.0856 256.611 50.0856C257.356 50.0856 258.1 50.0221 258.845 49.8949C259.608 49.7678 260.334 49.568 261.025 49.2955V52.9736C259.699 53.918 258.255 54.6264 256.693 55.0986C255.149 55.5527 253.587 55.7798 252.007 55.7798C250.499 55.7798 249.182 55.5709 248.056 55.1531C246.948 54.7172 246.022 54.0997 245.277 53.3005C244.551 52.5013 244.006 51.5296 243.643 50.3853C243.297 49.241 243.125 47.9424 243.125 46.4893V31.641ZM291.784 52.4014C290.894 53.0371 289.958 53.5729 288.978 54.0089C287.997 54.4266 287.007 54.7717 286.008 55.0442C285.009 55.2984 284.019 55.4801 283.038 55.589C282.057 55.7162 281.122 55.7798 280.232 55.7798C278.053 55.7798 276.064 55.471 274.266 54.8534C272.467 54.2359 270.924 53.3277 269.634 52.129C268.344 50.9302 267.345 49.4681 266.637 47.7426C265.929 45.9989 265.574 44.0101 265.574 41.776C265.574 39.3058 265.992 37.0899 266.828 35.1283C267.681 33.1485 268.817 31.4684 270.233 30.088C271.65 28.7076 273.285 27.6542 275.137 26.9277C277.008 26.183 278.961 25.8106 280.995 25.8106C282.72 25.8106 284.319 26.0831 285.79 26.628C287.261 27.1729 288.533 27.9902 289.604 29.08C290.676 30.1516 291.511 31.4866 292.111 33.085C292.71 34.6833 293.01 36.5359 293.01 38.6429C293.01 39.2604 292.983 39.8598 292.928 40.441C292.874 41.0041 292.801 41.5217 292.71 41.994H273.857C273.857 43.3562 274.093 44.5459 274.565 45.563C275.056 46.5801 275.737 47.4247 276.609 48.0968C277.499 48.7688 278.561 49.2683 279.796 49.5952C281.049 49.9222 282.43 50.0856 283.937 50.0856C284.428 50.0856 284.982 50.0675 285.599 50.0311C286.217 49.9948 286.871 49.9312 287.561 49.8404C288.251 49.7314 288.95 49.5861 289.659 49.4045C290.385 49.2229 291.094 48.9958 291.784 48.7234V52.4014ZM285.654 38.6974C285.654 37.4259 285.508 36.318 285.218 35.3735C284.927 34.4109 284.528 33.6117 284.019 32.976C283.511 32.3403 282.911 31.868 282.221 31.5593C281.531 31.2505 280.786 31.0961 279.987 31.0961C279.097 31.0961 278.28 31.2777 277.535 31.641C276.79 32.0042 276.145 32.5219 275.601 33.1939C275.056 33.866 274.629 34.6651 274.32 35.5915C274.011 36.5178 273.857 37.5531 273.857 38.6974H285.654Z" fill="#FF9F1C"/>
</svg>
