<svg width="297" height="283" viewBox="0 0 297 283" fill="none" xmlns="http://www.w3.org/2000/svg">
<path d="M6.73963 261.44V221.527H30.1428L29.3255 225.75H12.0796V238.5H27.4456L26.6282 242.723H12.0796V261.44H6.73963ZM58.9949 258.988C58.3047 259.479 57.5055 259.915 56.5974 260.296C55.7074 260.659 54.781 260.968 53.8184 261.222C52.8558 261.477 51.884 261.667 50.9032 261.795C49.9406 261.922 49.0415 261.985 48.206 261.985C46.3534 261.985 44.5915 261.677 42.9205 261.059C41.2495 260.441 39.7874 259.533 38.5341 258.335C37.2809 257.136 36.2819 255.655 35.5372 253.894C34.7925 252.114 34.4202 250.07 34.4202 247.764C34.4202 245.384 34.8107 243.223 35.5917 241.279C36.3909 239.336 37.4534 237.683 38.7794 236.321C40.1053 234.94 41.631 233.878 43.3565 233.133C45.1001 232.389 46.9255 232.016 48.8326 232.016C50.3765 232.016 51.8114 232.28 53.1373 232.806C54.4814 233.315 55.6438 234.087 56.6246 235.122C57.6236 236.157 58.4046 237.456 58.9676 239.018C59.5307 240.562 59.8122 242.369 59.8122 244.44C59.8122 244.858 59.7941 245.357 59.7577 245.938C59.7214 246.519 59.6488 247.128 59.5398 247.764H39.8146C39.8146 249.326 40.0871 250.724 40.632 251.959C41.195 253.176 41.9761 254.212 42.975 255.065C43.9922 255.901 45.2 256.536 46.5986 256.972C47.9971 257.408 49.541 257.626 51.2302 257.626C51.6479 257.626 52.1565 257.608 52.7559 257.572C53.3552 257.535 54 257.463 54.6902 257.354C55.3804 257.245 56.0979 257.09 56.8426 256.891C57.5872 256.673 58.3047 256.391 58.9949 256.046V258.988ZM54.9082 244.549C54.9082 243.187 54.7175 241.988 54.3361 240.952C53.9546 239.899 53.437 239.018 52.7831 238.31C52.1292 237.601 51.3664 237.066 50.4946 236.702C49.6409 236.339 48.7237 236.157 47.7428 236.157C46.6531 236.157 45.6268 236.384 44.6642 236.839C43.7016 237.274 42.857 237.874 42.1304 238.637C41.4221 239.399 40.859 240.289 40.4413 241.307C40.0235 242.324 39.8146 243.404 39.8146 244.549H54.9082ZM70.4104 236.702H64.58L65.016 234.032C66.4327 233.742 67.5679 233.378 68.4215 232.943C69.2752 232.488 69.9745 231.925 70.5194 231.253C71.0824 230.581 71.5456 229.773 71.9089 228.829C72.2903 227.866 72.7171 226.722 73.1894 225.396H75.5869V232.561H86.0488L84.9591 236.702H75.5869V252.831C75.5869 253.703 75.714 254.448 75.9683 255.065C76.2408 255.665 76.6131 256.155 77.0853 256.536C77.5576 256.918 78.1297 257.199 78.8018 257.381C79.4738 257.544 80.2185 257.626 81.0358 257.626C81.8713 257.626 82.6977 257.554 83.5151 257.408C84.3506 257.245 85.1407 257.027 85.8854 256.754V259.697C84.7411 260.441 83.5332 261.014 82.2618 261.413C81.0086 261.795 79.7281 261.985 78.4203 261.985C77.2034 261.985 76.1045 261.813 75.1237 261.468C74.1429 261.123 73.2983 260.623 72.59 259.969C71.8998 259.315 71.364 258.507 70.9825 257.544C70.6011 256.564 70.4104 255.447 70.4104 254.193V236.702ZM113.375 258.988C112.249 259.86 110.905 260.578 109.343 261.141C107.799 261.704 106.11 261.985 104.276 261.985C102.314 261.985 100.534 261.649 98.9356 260.977C97.3554 260.287 96.0022 259.334 94.8761 258.117C93.75 256.9 92.8782 255.447 92.2606 253.757C91.6612 252.05 91.3615 250.188 91.3615 248.172C91.3615 245.829 91.7611 243.668 92.5603 241.688C93.3595 239.708 94.4493 238.001 95.8297 236.566C97.2282 235.131 98.872 234.014 100.761 233.215C102.65 232.416 104.675 232.016 106.837 232.016C107.345 232.016 107.89 232.043 108.471 232.098C109.071 232.134 109.661 232.207 110.242 232.316C110.823 232.425 111.386 232.561 111.931 232.725C112.476 232.87 112.957 233.051 113.375 233.269L112.285 237.792L111.686 238.065C111.323 237.792 110.905 237.538 110.433 237.302C109.979 237.066 109.488 236.866 108.962 236.702C108.453 236.539 107.917 236.412 107.354 236.321C106.809 236.212 106.273 236.157 105.747 236.157C104.53 236.157 103.376 236.403 102.287 236.893C101.215 237.365 100.271 238.065 99.4532 238.991C98.6359 239.899 97.9911 241.025 97.5188 242.369C97.0466 243.695 96.8105 245.212 96.8105 246.919C96.8105 248.663 97.0557 250.197 97.5461 251.523C98.0546 252.849 98.7448 253.966 99.6167 254.874C100.489 255.783 101.524 256.473 102.723 256.945C103.921 257.399 105.22 257.626 106.619 257.626C107.454 257.626 108.462 257.526 109.643 257.326C110.823 257.109 112.067 256.682 113.375 256.046V258.988ZM121.44 217.794H126.616V237.247C127.27 236.666 127.997 236.067 128.796 235.449C129.595 234.831 130.458 234.268 131.384 233.76C132.31 233.251 133.282 232.834 134.299 232.507C135.316 232.18 136.37 232.016 137.46 232.016C138.767 232.016 139.948 232.27 141.001 232.779C142.073 233.269 142.99 233.969 143.753 234.877C144.516 235.767 145.097 236.848 145.497 238.119C145.914 239.372 146.123 240.771 146.123 242.315V261.44H140.947V242.751C140.947 241.697 140.792 240.771 140.484 239.972C140.193 239.172 139.784 238.51 139.258 237.983C138.749 237.438 138.132 237.038 137.405 236.784C136.678 236.512 135.897 236.375 135.062 236.375C133.536 236.375 132.092 236.775 130.73 237.574C129.368 238.373 127.997 239.427 126.616 240.734V261.44H121.44V217.794ZM155.223 232.561H161.898L162.933 237.383C163.569 236.802 164.277 236.203 165.058 235.585C165.839 234.95 166.666 234.368 167.538 233.842C168.409 233.315 169.318 232.879 170.262 232.534C171.225 232.189 172.196 232.016 173.177 232.016C174.104 232.016 174.984 232.162 175.82 232.452C176.656 232.743 177.409 233.142 178.081 233.651C178.772 234.141 179.371 234.722 179.879 235.395C180.406 236.067 180.815 236.784 181.105 237.547C181.832 236.929 182.586 236.294 183.367 235.64C184.148 234.986 184.974 234.396 185.846 233.869C186.718 233.324 187.635 232.879 188.598 232.534C189.579 232.189 190.623 232.016 191.731 232.016C193.093 232.016 194.319 232.28 195.409 232.806C196.499 233.333 197.425 234.05 198.188 234.959C198.951 235.867 199.532 236.938 199.932 238.173C200.349 239.409 200.558 240.734 200.558 242.151V261.44H192.521V243.159C192.521 242.324 192.412 241.57 192.194 240.898C191.976 240.226 191.658 239.654 191.24 239.182C190.841 238.709 190.36 238.346 189.797 238.092C189.233 237.837 188.607 237.71 187.917 237.71C187.354 237.71 186.818 237.792 186.309 237.956C185.801 238.119 185.292 238.346 184.783 238.637C184.293 238.909 183.803 239.245 183.312 239.645C182.822 240.044 182.322 240.471 181.814 240.925C181.868 241.307 181.896 241.715 181.896 242.151V261.44H173.858V243.159C173.858 242.324 173.74 241.57 173.504 240.898C173.286 240.226 172.968 239.654 172.551 239.182C172.151 238.709 171.67 238.346 171.107 238.092C170.544 237.837 169.917 237.71 169.227 237.71C168.682 237.71 168.155 237.792 167.647 237.956C167.156 238.119 166.666 238.346 166.175 238.637C165.685 238.909 165.195 239.245 164.704 239.645C164.232 240.026 163.751 240.444 163.26 240.898V261.44H155.223V232.561ZM224.888 257.218C224.379 257.653 223.78 258.153 223.089 258.716C222.417 259.261 221.673 259.779 220.855 260.269C220.038 260.741 219.157 261.141 218.213 261.468C217.268 261.813 216.278 261.985 215.243 261.985C214.099 261.985 213.054 261.767 212.11 261.331C211.184 260.896 210.393 260.314 209.74 259.588C209.086 258.843 208.577 257.98 208.214 257C207.869 256.019 207.696 254.993 207.696 253.921C207.696 252.631 207.978 251.396 208.541 250.216C209.104 249.017 209.994 247.963 211.211 247.055C212.446 246.147 214.044 245.43 216.006 244.903C217.967 244.358 220.347 244.086 223.144 244.086H224.67V242.124C224.67 240.58 224.179 239.39 223.198 238.555C222.236 237.719 220.955 237.302 219.357 237.302C218.703 237.302 218.004 237.383 217.259 237.547C216.514 237.692 215.77 237.91 215.025 238.201C214.299 238.473 213.581 238.8 212.873 239.182C212.183 239.545 211.547 239.944 210.966 240.38L210.475 240.108L209.031 234.959C211.302 233.851 213.427 233.088 215.406 232.67C217.404 232.234 219.321 232.016 221.155 232.016C222.862 232.016 224.424 232.189 225.841 232.534C227.276 232.861 228.493 233.388 229.492 234.114C230.509 234.822 231.299 235.749 231.862 236.893C232.425 238.037 232.707 239.418 232.707 241.034V253.512C232.707 253.821 232.725 254.139 232.761 254.466C232.816 254.793 232.916 255.092 233.061 255.365C233.206 255.637 233.406 255.864 233.66 256.046C233.915 256.209 234.251 256.291 234.668 256.291C234.923 256.291 235.204 256.264 235.513 256.209C235.822 256.155 236.149 256.055 236.494 255.91V259.561C235.404 260.323 234.314 260.923 233.224 261.359C232.153 261.776 231.108 261.985 230.091 261.985C229.365 261.985 228.729 261.858 228.184 261.604C227.639 261.368 227.158 261.041 226.74 260.623C226.323 260.205 225.959 259.706 225.65 259.125C225.36 258.543 225.106 257.908 224.888 257.218ZM224.67 247.355H223.28C221.609 247.355 220.247 247.473 219.193 247.709C218.158 247.945 217.35 248.281 216.769 248.717C216.188 249.135 215.788 249.634 215.57 250.216C215.352 250.797 215.243 251.423 215.243 252.096C215.243 252.804 215.343 253.421 215.543 253.948C215.743 254.475 216.015 254.911 216.36 255.256C216.723 255.601 217.141 255.864 217.613 256.046C218.086 256.209 218.594 256.291 219.139 256.291C219.92 256.291 220.756 256.11 221.646 255.746C222.554 255.383 223.562 254.693 224.67 253.676V247.355ZM243.795 237.847H237.992L238.537 234.278C239.5 233.987 240.326 233.696 241.016 233.406C241.725 233.115 242.333 232.797 242.842 232.452C243.369 232.089 243.823 231.698 244.204 231.281C244.604 230.845 244.976 230.345 245.321 229.782C245.666 229.219 246.011 228.574 246.356 227.848C246.702 227.121 247.092 226.286 247.528 225.341H251.451V232.561H261.75L260.496 237.847H251.833V251.442C251.833 253.222 252.305 254.475 253.249 255.201C254.212 255.928 255.556 256.291 257.282 256.291C258.026 256.291 258.771 256.228 259.516 256.1C260.278 255.973 261.005 255.774 261.695 255.501V259.179C260.369 260.124 258.925 260.832 257.363 261.304C255.819 261.758 254.257 261.985 252.677 261.985C251.17 261.985 249.853 261.776 248.727 261.359C247.619 260.923 246.692 260.305 245.948 259.506C245.221 258.707 244.676 257.735 244.313 256.591C243.968 255.447 243.795 254.148 243.795 252.695V237.847ZM292.454 258.607C291.564 259.243 290.629 259.779 289.648 260.214C288.667 260.632 287.677 260.977 286.679 261.25C285.68 261.504 284.69 261.686 283.709 261.795C282.728 261.922 281.793 261.985 280.903 261.985C278.723 261.985 276.734 261.677 274.936 261.059C273.138 260.441 271.594 259.533 270.304 258.335C269.015 257.136 268.016 255.674 267.308 253.948C266.599 252.204 266.245 250.216 266.245 247.982C266.245 245.511 266.663 243.295 267.498 241.334C268.352 239.354 269.487 237.674 270.904 236.294C272.321 234.913 273.955 233.86 275.808 233.133C277.679 232.389 279.631 232.016 281.665 232.016C283.391 232.016 284.989 232.289 286.461 232.834C287.932 233.378 289.203 234.196 290.275 235.286C291.346 236.357 292.182 237.692 292.781 239.291C293.381 240.889 293.68 242.742 293.68 244.848C293.68 245.466 293.653 246.065 293.599 246.647C293.544 247.21 293.472 247.727 293.381 248.2H274.527C274.527 249.562 274.764 250.751 275.236 251.769C275.726 252.786 276.407 253.63 277.279 254.302C278.169 254.974 279.232 255.474 280.467 255.801C281.72 256.128 283.1 256.291 284.608 256.291C285.098 256.291 285.652 256.273 286.27 256.237C286.887 256.2 287.541 256.137 288.231 256.046C288.922 255.937 289.621 255.792 290.329 255.61C291.056 255.428 291.764 255.201 292.454 254.929V258.607ZM286.324 244.903C286.324 243.632 286.179 242.524 285.888 241.579C285.598 240.616 285.198 239.817 284.69 239.182C284.181 238.546 283.582 238.074 282.891 237.765C282.201 237.456 281.457 237.302 280.657 237.302C279.767 237.302 278.95 237.483 278.205 237.847C277.461 238.21 276.816 238.727 276.271 239.399C275.726 240.072 275.299 240.871 274.991 241.797C274.682 242.723 274.527 243.759 274.527 244.903H286.324Z" fill="#2EC4B6"/>
<path fill-rule="evenodd" clip-rule="evenodd" d="M184.669 11.8592C185.423 11.1449 189.749 9.51782 199.472 6.22399C207.052 3.68417 213.561 1.5809 213.958 1.5809C214.355 1.54121 216.736 3.56512 219.355 6.06525C221.935 8.56539 224.475 10.7084 224.991 10.8274C225.507 10.9465 229.912 11.1052 234.714 11.1449C240.907 11.2318 243.459 11.0808 244.501 12.2619C245.362 13.2378 245.191 15.1233 245.191 18.804C245.191 24.4392 245.151 24.9155 244.159 26.86C242.532 30.1142 239.913 31.7412 228.959 36.305C225.705 37.6542 223.959 38.6464 222.728 39.8369C220.03 42.4164 220.189 43.4085 225.348 56.7029C233.92 78.7278 235.23 85.4742 235.269 106.904C235.269 128.73 234.873 130.397 227.57 138.572C224.197 142.382 223.76 143.017 223.363 145.081C222.014 151.589 225.983 166.907 233.087 182.424L234.595 185.678H237.135C240.151 185.678 241.897 186.313 243.286 187.98C246.223 191.472 245.469 196.512 241.699 198.853C240.31 199.687 239.754 199.766 232.809 199.885C224.395 200.044 222.808 199.687 220.863 197.147C219.673 195.559 214.315 183.654 210.862 174.765C207.727 166.748 204.631 157.145 203.322 151.311C202.25 146.549 201.417 139.287 201.774 138.255C201.933 137.937 201.853 137.66 201.615 137.66C201.417 137.66 201.139 137.898 201.02 138.215C200.901 138.493 199.472 140.795 197.845 143.295L194.869 147.819L196.178 150.517C201.377 161.232 199.512 174.923 191.813 183.138C190.702 184.329 189.908 185.281 190.027 185.281C190.1 185.305 191.309 185.3 193.089 185.292C194.226 185.287 195.597 185.281 197.051 185.281C200.822 185.281 204.592 185.44 205.425 185.678C208.997 186.63 211.14 189.289 211.14 192.781C211.14 195.956 209.116 198.655 205.981 199.568C204.989 199.885 196.377 199.964 178.518 199.885L152.523 199.766L150.698 198.853C148.594 197.821 146.015 195.361 144.943 193.377C144.348 192.305 143.991 192.027 143.395 192.186C142.959 192.305 140.578 192.94 138.117 193.575C115.615 199.607 59.657 198.456 49.4576 191.789C46.3621 189.805 46.0049 186.67 48.5845 184.527C51.7594 181.948 57.5537 181.194 83.072 179.924C107.559 178.733 117.837 177.503 125.973 174.923C131.966 173.019 134.069 170.876 134.069 166.748C134.069 157.462 141.014 139.485 150.737 123.571C152.206 121.151 159.865 106.309 167.763 90.5539L182.09 61.9016L182.169 38.7654C182.269 17.4607 182.257 14.5326 183.693 12.8156C183.963 12.4921 184.285 12.2115 184.669 11.8592ZM221.446 14.3327C220.213 13.5353 218.979 12.3554 217.172 10.5893C214.99 8.44634 213.005 6.70021 212.807 6.73989C212.707 6.74761 212.395 6.83116 211.914 6.97615L221.291 14.3164L221.446 14.3327ZM239.932 16.2936L240.429 16.3462V16.3039L239.932 16.2936ZM217.533 49.1775V50.5805L220.995 58.5147C220.746 57.882 220.49 57.2386 220.228 56.5838C219.062 53.656 218.17 51.2279 217.533 49.1775ZM201.536 111.945L200.658 127.372C201.432 124.237 201.536 120.366 201.536 112.182C201.536 112.102 201.536 112.023 201.536 111.945ZM172.628 139.305H171.079L172.732 139.993C172.626 139.758 172.592 139.539 172.628 139.305ZM177.732 142.075L178.909 142.565L185.59 145.112L190.6 152.446L193.628 159.169V168.846L191.38 175.88C193.315 172.46 194.392 168.29 194.392 163.653C194.392 152.103 187.632 143.411 177.732 142.075ZM183.987 183.216L188.14 180.141C186.907 181.361 185.516 182.395 183.987 183.216ZM187.268 53.1329L190.496 54.4514H192.061C190.729 54.2124 189.378 53.7422 187.646 52.9725C187.475 52.9068 187.352 52.9281 187.268 53.1329ZM197.121 54.4514H197.177L197.214 54.438C197.183 54.4426 197.152 54.447 197.121 54.4514ZM202.684 21.4469H202.188L200.726 22.6693L202.188 28.3738L203.127 36.4212V42.7369L200.726 47.3208L196.446 49.6637H192.338C193.201 49.8536 194.164 49.9124 195.226 49.8374C198.877 49.5993 200.901 48.4088 202.488 45.5912L203.719 43.4085V37.2574C203.679 32.0587 203.56 30.5507 202.727 27.3362C202.171 25.2726 201.774 23.209 201.853 22.7725C201.921 22.2081 202.243 21.7529 202.684 21.4469ZM189.428 48.2079L191.613 49.4656C190.773 49.1879 190.044 48.7677 189.428 48.2079ZM187.653 15.7489L208.863 7.95606C201.926 10.2524 188.307 15.0287 187.884 15.3912C187.795 15.4668 187.719 15.5726 187.653 15.7489Z" fill="#2EC4B6" stroke="#2EC4B6" stroke-width="2.0384"/>
</svg>
