<svg width="1092" height="310" viewBox="0 0 1092 310" fill="none" xmlns="http://www.w3.org/2000/svg">
<path d="M20.5195 274.44V234.527H43.9227L43.1054 238.75H25.8595V251.5H41.2255L40.4081 255.723H25.8595V274.44H20.5195ZM72.7748 271.988C72.0846 272.479 71.2854 272.915 70.3773 273.296C69.4873 273.659 68.561 273.968 67.5983 274.222C66.6357 274.477 65.6639 274.667 64.6831 274.795C63.7205 274.922 62.8214 274.985 61.9859 274.985C60.1333 274.985 58.3715 274.677 56.7004 274.059C55.0294 273.441 53.5673 272.533 52.3141 271.335C51.0608 270.136 50.0618 268.655 49.3171 266.894C48.5725 265.114 48.2001 263.07 48.2001 260.764C48.2001 258.384 48.5906 256.223 49.3716 254.279C50.1708 252.336 51.2334 250.683 52.5593 249.321C53.8852 247.94 55.4109 246.878 57.1364 246.133C58.88 245.389 60.7054 245.016 62.6125 245.016C64.1564 245.016 65.5913 245.28 66.9172 245.806C68.2613 246.315 69.4237 247.087 70.4045 248.122C71.4035 249.157 72.1845 250.456 72.7476 252.018C73.3106 253.562 73.5921 255.369 73.5921 257.44C73.5921 257.858 73.574 258.357 73.5376 258.938C73.5013 259.519 73.4287 260.128 73.3197 260.764H53.5946C53.5946 262.326 53.867 263.724 54.4119 264.959C54.975 266.176 55.756 267.212 56.7549 268.065C57.7721 268.901 58.9799 269.536 60.3785 269.972C61.777 270.408 63.3209 270.626 65.0101 270.626C65.4278 270.626 65.9364 270.608 66.5358 270.572C67.1352 270.535 67.7799 270.463 68.4701 270.354C69.1603 270.245 69.8778 270.09 70.6225 269.891C71.3672 269.673 72.0846 269.391 72.7748 269.046V271.988ZM68.6881 257.549C68.6881 256.187 68.4974 254.988 68.116 253.952C67.7345 252.899 67.2169 252.018 66.563 251.31C65.9091 250.601 65.1463 250.066 64.2745 249.702C63.4208 249.339 62.5036 249.157 61.5228 249.157C60.433 249.157 59.4067 249.384 58.4441 249.839C57.4815 250.274 56.6369 250.874 55.9104 251.637C55.202 252.399 54.6389 253.289 54.2212 254.307C53.8034 255.324 53.5946 256.404 53.5946 257.549H68.6881ZM84.1903 249.702H78.36L78.7959 247.032C80.2126 246.742 81.3478 246.378 82.2014 245.943C83.0551 245.488 83.7544 244.925 84.2993 244.253C84.8623 243.581 85.3255 242.773 85.6888 241.829C86.0702 240.866 86.497 239.722 86.9693 238.396H89.3668V245.561H99.8287L98.739 249.702H89.3668V265.831C89.3668 266.703 89.4939 267.448 89.7482 268.065C90.0207 268.665 90.393 269.155 90.8653 269.536C91.3375 269.918 91.9096 270.199 92.5817 270.381C93.2537 270.544 93.9984 270.626 94.8157 270.626C95.6512 270.626 96.4777 270.554 97.295 270.408C98.1305 270.245 98.9206 270.027 99.6653 269.754V272.697C98.521 273.441 97.3132 274.014 96.0417 274.413C94.7885 274.795 93.508 274.985 92.2002 274.985C90.9833 274.985 89.8844 274.813 88.9036 274.468C87.9228 274.123 87.0782 273.623 86.3699 272.969C85.6797 272.315 85.1439 271.507 84.7624 270.544C84.381 269.564 84.1903 268.447 84.1903 267.193V249.702ZM127.155 271.988C126.029 272.86 124.685 273.578 123.123 274.141C121.579 274.704 119.89 274.985 118.055 274.985C116.094 274.985 114.314 274.649 112.715 273.977C111.135 273.287 109.782 272.334 108.656 271.117C107.53 269.9 106.658 268.447 106.041 266.757C105.441 265.05 105.141 263.188 105.141 261.172C105.141 258.829 105.541 256.668 106.34 254.688C107.139 252.708 108.229 251.001 109.61 249.566C111.008 248.131 112.652 247.014 114.541 246.215C116.43 245.416 118.455 245.016 120.616 245.016C121.125 245.016 121.67 245.043 122.251 245.098C122.85 245.134 123.441 245.207 124.022 245.316C124.603 245.425 125.166 245.561 125.711 245.725C126.256 245.87 126.737 246.051 127.155 246.269L126.065 250.792L125.466 251.065C125.103 250.792 124.685 250.538 124.213 250.302C123.759 250.066 123.268 249.866 122.742 249.702C122.233 249.539 121.697 249.412 121.134 249.321C120.589 249.212 120.053 249.157 119.527 249.157C118.31 249.157 117.156 249.403 116.067 249.893C114.995 250.365 114.05 251.065 113.233 251.991C112.416 252.899 111.771 254.025 111.299 255.369C110.827 256.695 110.59 258.212 110.59 259.919C110.59 261.663 110.836 263.197 111.326 264.523C111.835 265.849 112.525 266.966 113.397 267.874C114.268 268.783 115.304 269.473 116.502 269.945C117.701 270.399 119 270.626 120.398 270.626C121.234 270.626 122.242 270.526 123.423 270.326C124.603 270.109 125.847 269.682 127.155 269.046V271.988ZM135.22 230.794H140.396V250.247C141.05 249.666 141.776 249.067 142.576 248.449C143.375 247.831 144.238 247.268 145.164 246.76C146.09 246.251 147.062 245.834 148.079 245.507C149.096 245.18 150.15 245.016 151.239 245.016C152.547 245.016 153.728 245.27 154.781 245.779C155.853 246.269 156.77 246.969 157.533 247.877C158.296 248.767 158.877 249.848 159.277 251.119C159.694 252.372 159.903 253.771 159.903 255.315V274.44H154.727V255.751C154.727 254.697 154.572 253.771 154.264 252.972C153.973 252.172 153.564 251.51 153.038 250.983C152.529 250.438 151.911 250.038 151.185 249.784C150.458 249.512 149.677 249.375 148.842 249.375C147.316 249.375 145.872 249.775 144.51 250.574C143.148 251.373 141.776 252.427 140.396 253.734V274.44H135.22V230.794ZM169.003 245.561H175.678L176.713 250.383C177.349 249.802 178.057 249.203 178.838 248.585C179.619 247.95 180.446 247.368 181.318 246.842C182.189 246.315 183.098 245.879 184.042 245.534C185.005 245.189 185.976 245.016 186.957 245.016C187.883 245.016 188.764 245.162 189.6 245.452C190.435 245.743 191.189 246.142 191.861 246.651C192.551 247.141 193.151 247.722 193.659 248.395C194.186 249.067 194.595 249.784 194.885 250.547C195.612 249.929 196.366 249.294 197.147 248.64C197.928 247.986 198.754 247.396 199.626 246.869C200.498 246.324 201.415 245.879 202.378 245.534C203.358 245.189 204.403 245.016 205.511 245.016C206.873 245.016 208.099 245.28 209.189 245.806C210.279 246.333 211.205 247.05 211.968 247.959C212.731 248.867 213.312 249.938 213.711 251.173C214.129 252.409 214.338 253.734 214.338 255.151V274.44H206.301V256.159C206.301 255.324 206.192 254.57 205.974 253.898C205.756 253.226 205.438 252.654 205.02 252.182C204.621 251.709 204.139 251.346 203.576 251.092C203.013 250.837 202.387 250.71 201.697 250.71C201.133 250.71 200.598 250.792 200.089 250.956C199.581 251.119 199.072 251.346 198.563 251.637C198.073 251.909 197.583 252.245 197.092 252.645C196.602 253.044 196.102 253.471 195.594 253.925C195.648 254.307 195.675 254.715 195.675 255.151V274.44H187.638V256.159C187.638 255.324 187.52 254.57 187.284 253.898C187.066 253.226 186.748 252.654 186.331 252.182C185.931 251.709 185.45 251.346 184.887 251.092C184.324 250.837 183.697 250.71 183.007 250.71C182.462 250.71 181.935 250.792 181.427 250.956C180.936 251.119 180.446 251.346 179.955 251.637C179.465 251.909 178.974 252.245 178.484 252.645C178.012 253.026 177.531 253.444 177.04 253.898V274.44H169.003V245.561ZM238.668 270.218C238.159 270.653 237.56 271.153 236.869 271.716C236.197 272.261 235.453 272.779 234.635 273.269C233.818 273.741 232.937 274.141 231.993 274.468C231.048 274.813 230.058 274.985 229.023 274.985C227.879 274.985 226.834 274.767 225.89 274.331C224.963 273.896 224.173 273.314 223.52 272.588C222.866 271.843 222.357 270.98 221.994 270C221.649 269.019 221.476 267.993 221.476 266.921C221.476 265.631 221.758 264.396 222.321 263.216C222.884 262.017 223.774 260.963 224.991 260.055C226.226 259.147 227.824 258.43 229.786 257.903C231.747 257.358 234.127 257.086 236.924 257.086H238.45V255.124C238.45 253.58 237.959 252.39 236.978 251.555C236.016 250.719 234.735 250.302 233.137 250.302C232.483 250.302 231.784 250.383 231.039 250.547C230.294 250.692 229.55 250.91 228.805 251.201C228.078 251.473 227.361 251.8 226.653 252.182C225.962 252.545 225.327 252.944 224.746 253.38L224.255 253.108L222.811 247.959C225.082 246.851 227.207 246.088 229.186 245.67C231.184 245.234 233.101 245.016 234.935 245.016C236.642 245.016 238.204 245.189 239.621 245.534C241.056 245.861 242.273 246.388 243.272 247.114C244.289 247.822 245.079 248.749 245.642 249.893C246.205 251.037 246.487 252.418 246.487 254.034V266.512C246.487 266.821 246.505 267.139 246.541 267.466C246.596 267.793 246.696 268.092 246.841 268.365C246.986 268.637 247.186 268.864 247.44 269.046C247.695 269.209 248.031 269.291 248.448 269.291C248.703 269.291 248.984 269.264 249.293 269.209C249.602 269.155 249.929 269.055 250.274 268.91V272.561C249.184 273.323 248.094 273.923 247.004 274.359C245.933 274.776 244.888 274.985 243.871 274.985C243.145 274.985 242.509 274.858 241.964 274.604C241.419 274.368 240.938 274.041 240.52 273.623C240.102 273.205 239.739 272.706 239.43 272.125C239.14 271.543 238.885 270.908 238.668 270.218ZM238.45 260.355H237.06C235.389 260.355 234.027 260.473 232.973 260.709C231.938 260.945 231.13 261.281 230.549 261.717C229.967 262.135 229.568 262.634 229.35 263.216C229.132 263.797 229.023 264.423 229.023 265.096C229.023 265.804 229.123 266.421 229.323 266.948C229.522 267.475 229.795 267.911 230.14 268.256C230.503 268.601 230.921 268.864 231.393 269.046C231.865 269.209 232.374 269.291 232.919 269.291C233.7 269.291 234.535 269.11 235.425 268.746C236.334 268.383 237.342 267.693 238.45 266.676V260.355ZM257.575 250.847H251.772L252.317 247.278C253.28 246.987 254.106 246.696 254.796 246.406C255.505 246.115 256.113 245.797 256.622 245.452C257.148 245.089 257.603 244.698 257.984 244.281C258.384 243.845 258.756 243.345 259.101 242.782C259.446 242.219 259.791 241.574 260.136 240.848C260.481 240.121 260.872 239.286 261.308 238.341H265.231V245.561H275.53L274.276 250.847H265.613V264.442C265.613 266.222 266.085 267.475 267.029 268.201C267.992 268.928 269.336 269.291 271.061 269.291C271.806 269.291 272.551 269.228 273.296 269.1C274.058 268.973 274.785 268.774 275.475 268.501V272.179C274.149 273.124 272.705 273.832 271.143 274.304C269.599 274.758 268.037 274.985 266.457 274.985C264.95 274.985 263.633 274.776 262.507 274.359C261.399 273.923 260.472 273.305 259.728 272.506C259.001 271.707 258.456 270.735 258.093 269.591C257.748 268.447 257.575 267.148 257.575 265.695V250.847ZM306.234 271.607C305.344 272.243 304.409 272.779 303.428 273.214C302.447 273.632 301.457 273.977 300.458 274.25C299.459 274.504 298.47 274.686 297.489 274.795C296.508 274.922 295.573 274.985 294.683 274.985C292.503 274.985 290.514 274.677 288.716 274.059C286.918 273.441 285.374 272.533 284.084 271.335C282.795 270.136 281.796 268.674 281.087 266.948C280.379 265.204 280.025 263.216 280.025 260.982C280.025 258.511 280.443 256.295 281.278 254.334C282.132 252.354 283.267 250.674 284.684 249.294C286.1 247.913 287.735 246.86 289.588 246.133C291.459 245.389 293.411 245.016 295.445 245.016C297.171 245.016 298.769 245.289 300.24 245.834C301.712 246.378 302.983 247.196 304.055 248.286C305.126 249.357 305.962 250.692 306.561 252.291C307.161 253.889 307.46 255.742 307.46 257.848C307.46 258.466 307.433 259.065 307.379 259.647C307.324 260.21 307.251 260.727 307.161 261.2H288.307C288.307 262.562 288.543 263.751 289.016 264.769C289.506 265.786 290.187 266.63 291.059 267.302C291.949 267.974 293.012 268.474 294.247 268.801C295.5 269.128 296.88 269.291 298.388 269.291C298.878 269.291 299.432 269.273 300.05 269.237C300.667 269.2 301.321 269.137 302.011 269.046C302.702 268.937 303.401 268.792 304.109 268.61C304.836 268.428 305.544 268.201 306.234 267.929V271.607ZM300.104 257.903C300.104 256.632 299.959 255.524 299.668 254.579C299.378 253.616 298.978 252.817 298.47 252.182C297.961 251.546 297.362 251.074 296.671 250.765C295.981 250.456 295.237 250.302 294.437 250.302C293.547 250.302 292.73 250.483 291.985 250.847C291.241 251.21 290.596 251.727 290.051 252.399C289.506 253.072 289.079 253.871 288.77 254.797C288.462 255.723 288.307 256.759 288.307 257.903H300.104Z" fill="black"/>
<path fill-rule="evenodd" clip-rule="evenodd" d="M198.449 24.8592C199.203 24.1449 203.529 22.5178 213.252 19.224C220.832 16.6842 227.341 14.5809 227.738 14.5809C228.135 14.5412 230.516 16.5651 233.135 19.0653C235.715 21.5654 238.255 23.7084 238.771 23.8274C239.287 23.9465 243.692 24.1052 248.494 24.1449C254.687 24.2318 257.239 24.0808 258.281 25.2619C259.142 26.2378 258.971 28.1233 258.971 31.804C258.971 37.4392 258.931 37.9155 257.939 39.86C256.312 43.1142 253.693 44.7412 242.739 49.305C239.485 50.6542 237.739 51.6464 236.509 52.8369C233.81 55.4164 233.969 56.4085 239.128 69.7029C247.7 91.7278 249.01 98.4742 249.05 119.904C249.05 141.73 248.653 143.397 241.35 151.572C237.977 155.382 237.54 156.017 237.144 158.081C235.794 164.589 239.763 179.907 246.867 195.424L248.375 198.678H250.915C253.931 198.678 255.677 199.313 257.066 200.98C260.003 204.472 259.249 209.512 255.479 211.853C254.09 212.687 253.534 212.766 246.589 212.885C238.175 213.044 236.588 212.687 234.643 210.147C233.453 208.559 228.095 196.654 224.642 187.765C221.507 179.748 218.412 170.145 217.102 164.311C216.03 159.549 215.197 152.287 215.554 151.255C215.713 150.937 215.634 150.66 215.395 150.66C215.197 150.66 214.919 150.898 214.8 151.215C214.681 151.493 213.252 153.795 211.625 156.295L208.649 160.819L209.958 163.517C215.157 174.232 213.292 187.923 205.593 196.138C204.482 197.329 203.688 198.281 203.807 198.281C203.88 198.305 205.09 198.3 206.869 198.292C208.007 198.287 209.377 198.281 210.832 198.281C214.602 198.281 218.372 198.44 219.205 198.678C222.777 199.63 224.92 202.289 224.92 205.781C224.92 208.956 222.896 211.655 219.761 212.568C218.769 212.885 210.157 212.964 192.298 212.885L166.303 212.766L164.478 211.853C162.374 210.821 159.795 208.361 158.723 206.377C158.128 205.305 157.771 205.027 157.175 205.186C156.739 205.305 154.358 205.94 151.897 206.575C129.395 212.607 73.4372 211.456 63.2378 204.789C60.1422 202.805 59.7851 199.67 62.3647 197.527C65.5396 194.948 71.3338 194.194 96.8522 192.924C121.339 191.733 131.617 190.503 139.753 187.923C145.746 186.019 147.849 183.876 147.849 179.748C147.849 170.462 154.794 152.485 164.517 136.571C165.986 134.151 173.645 119.309 181.543 103.554L195.87 74.9016L195.949 51.7654C196.049 30.4607 196.037 27.5326 197.473 25.8156C197.744 25.4921 198.066 25.2115 198.449 24.8592ZM235.226 27.3327C233.993 26.5353 232.759 25.3554 230.953 23.5893C228.77 21.4463 226.785 19.7002 226.587 19.7399C226.487 19.7476 226.175 19.8312 225.694 19.9762L235.071 27.3164L235.226 27.3327ZM253.713 29.2936L254.209 29.3462V29.3039L253.713 29.2936ZM231.313 62.1775V63.5805L234.775 71.5147C234.526 70.882 234.27 70.2386 234.008 69.5838C232.842 66.656 231.95 64.2279 231.313 62.1775ZM215.316 124.945L214.438 140.372C215.213 137.237 215.316 133.366 215.316 125.182C215.316 125.102 215.316 125.023 215.316 124.945ZM186.408 152.305H184.86L186.512 152.993C186.406 152.758 186.372 152.539 186.408 152.305ZM191.512 155.075L192.689 155.565L199.37 158.112L204.381 165.446L207.408 172.169V181.846L205.16 188.88C207.095 185.46 208.173 181.29 208.173 176.653C208.173 165.103 201.412 156.411 191.512 155.075ZM197.767 196.216L201.92 193.141C200.688 194.361 199.296 195.395 197.767 196.216ZM201.048 66.1329L204.276 67.4514H205.841C204.51 67.2124 203.158 66.7422 201.426 65.9725C201.255 65.9068 201.132 65.9281 201.048 66.1329ZM210.901 67.4514H210.957L210.994 67.438C210.963 67.4426 210.932 67.447 210.901 67.4514ZM216.464 34.4469H215.968L214.506 35.6693L215.968 41.3738L216.907 49.4212V55.7369L214.506 60.3208L210.226 62.6637H206.118C206.981 62.8536 207.944 62.9124 209.006 62.8374C212.657 62.5993 214.681 61.4088 216.269 58.5912L217.499 56.4085V50.2574C217.459 45.0587 217.34 43.5507 216.507 40.3362C215.951 38.2726 215.554 36.209 215.634 35.7725C215.701 35.2081 216.023 34.7529 216.464 34.4469ZM203.208 61.2079L205.393 62.4656C204.553 62.1879 203.824 61.7677 203.208 61.2079ZM201.434 28.7489L222.644 20.9561C215.706 23.2524 202.087 28.0287 201.664 28.3912C201.576 28.4668 201.499 28.5726 201.434 28.7489Z" fill="black" stroke="black" stroke-width="2.0384"/>
<path d="M403.74 274.44V234.527H427.143L426.325 238.75H409.08V251.5H424.446L423.628 255.723H409.08V274.44H403.74ZM455.995 271.988C455.305 272.479 454.506 272.915 453.597 273.296C452.707 273.659 451.781 273.968 450.818 274.222C449.856 274.477 448.884 274.667 447.903 274.795C446.941 274.922 446.042 274.985 445.206 274.985C443.353 274.985 441.592 274.677 439.921 274.059C438.25 273.441 436.787 272.533 435.534 271.335C434.281 270.136 433.282 268.655 432.537 266.894C431.793 265.114 431.42 263.07 431.42 260.764C431.42 258.384 431.811 256.223 432.592 254.279C433.391 252.336 434.453 250.683 435.779 249.321C437.105 247.94 438.631 246.878 440.356 246.133C442.1 245.389 443.926 245.016 445.833 245.016C447.376 245.016 448.811 245.28 450.137 245.806C451.481 246.315 452.644 247.087 453.625 248.122C454.624 249.157 455.405 250.456 455.968 252.018C456.531 253.562 456.812 255.369 456.812 257.44C456.812 257.858 456.794 258.357 456.758 258.938C456.721 259.519 456.649 260.128 456.54 260.764H436.815C436.815 262.326 437.087 263.724 437.632 264.959C438.195 266.176 438.976 267.212 439.975 268.065C440.992 268.901 442.2 269.536 443.599 269.972C444.997 270.408 446.541 270.626 448.23 270.626C448.648 270.626 449.156 270.608 449.756 270.572C450.355 270.535 451 270.463 451.69 270.354C452.38 270.245 453.098 270.09 453.843 269.891C454.587 269.673 455.305 269.391 455.995 269.046V271.988ZM451.908 257.549C451.908 256.187 451.717 254.988 451.336 253.952C450.955 252.899 450.437 252.018 449.783 251.31C449.129 250.601 448.366 250.066 447.495 249.702C446.641 249.339 445.724 249.157 444.743 249.157C443.653 249.157 442.627 249.384 441.664 249.839C440.702 250.274 439.857 250.874 439.13 251.637C438.422 252.399 437.859 253.289 437.441 254.307C437.024 255.324 436.815 256.404 436.815 257.549H451.908ZM467.41 249.702H461.58L462.016 247.032C463.433 246.742 464.568 246.378 465.422 245.943C466.275 245.488 466.974 244.925 467.519 244.253C468.082 243.581 468.546 242.773 468.909 241.829C469.29 240.866 469.717 239.722 470.189 238.396H472.587V245.561H483.049L481.959 249.702H472.587V265.831C472.587 266.703 472.714 267.448 472.968 268.065C473.241 268.665 473.613 269.155 474.085 269.536C474.558 269.918 475.13 270.199 475.802 270.381C476.474 270.544 477.218 270.626 478.036 270.626C478.871 270.626 479.698 270.554 480.515 270.408C481.351 270.245 482.141 270.027 482.885 269.754V272.697C481.741 273.441 480.533 274.014 479.262 274.413C478.009 274.795 476.728 274.985 475.42 274.985C474.203 274.985 473.105 274.813 472.124 274.468C471.143 274.123 470.298 273.623 469.59 272.969C468.9 272.315 468.364 271.507 467.983 270.544C467.601 269.564 467.41 268.447 467.41 267.193V249.702ZM510.375 271.988C509.249 272.86 507.905 273.578 506.343 274.141C504.799 274.704 503.11 274.985 501.276 274.985C499.314 274.985 497.534 274.649 495.936 273.977C494.355 273.287 493.002 272.334 491.876 271.117C490.75 269.9 489.878 268.447 489.261 266.757C488.661 265.05 488.362 263.188 488.362 261.172C488.362 258.829 488.761 256.668 489.56 254.688C490.359 252.708 491.449 251.001 492.83 249.566C494.228 248.131 495.872 247.014 497.761 246.215C499.65 245.416 501.675 245.016 503.837 245.016C504.345 245.016 504.89 245.043 505.471 245.098C506.071 245.134 506.661 245.207 507.242 245.316C507.823 245.425 508.386 245.561 508.931 245.725C509.476 245.87 509.957 246.051 510.375 246.269L509.285 250.792L508.686 251.065C508.323 250.792 507.905 250.538 507.433 250.302C506.979 250.066 506.488 249.866 505.962 249.702C505.453 249.539 504.917 249.412 504.354 249.321C503.809 249.212 503.273 249.157 502.747 249.157C501.53 249.157 500.376 249.403 499.287 249.893C498.215 250.365 497.271 251.065 496.453 251.991C495.636 252.899 494.991 254.025 494.519 255.369C494.047 256.695 493.81 258.212 493.81 259.919C493.81 261.663 494.056 263.197 494.546 264.523C495.055 265.849 495.745 266.966 496.617 267.874C497.489 268.783 498.524 269.473 499.723 269.945C500.921 270.399 502.22 270.626 503.619 270.626C504.454 270.626 505.462 270.526 506.643 270.326C507.823 270.109 509.067 269.682 510.375 269.046V271.988ZM518.44 230.794H523.616V250.247C524.27 249.666 524.997 249.067 525.796 248.449C526.595 247.831 527.458 247.268 528.384 246.76C529.31 246.251 530.282 245.834 531.299 245.507C532.316 245.18 533.37 245.016 534.46 245.016C535.767 245.016 536.948 245.27 538.001 245.779C539.073 246.269 539.99 246.969 540.753 247.877C541.516 248.767 542.097 249.848 542.497 251.119C542.914 252.372 543.123 253.771 543.123 255.315V274.44H537.947V255.751C537.947 254.697 537.792 253.771 537.484 252.972C537.193 252.172 536.784 251.51 536.258 250.983C535.749 250.438 535.132 250.038 534.405 249.784C533.678 249.512 532.897 249.375 532.062 249.375C530.536 249.375 529.092 249.775 527.73 250.574C526.368 251.373 524.997 252.427 523.616 253.734V274.44H518.44V230.794ZM552.223 245.561H558.898L559.933 250.383C560.569 249.802 561.277 249.203 562.058 248.585C562.839 247.95 563.666 247.368 564.538 246.842C565.409 246.315 566.318 245.879 567.262 245.534C568.225 245.189 569.196 245.016 570.177 245.016C571.104 245.016 571.984 245.162 572.82 245.452C573.656 245.743 574.409 246.142 575.081 246.651C575.772 247.141 576.371 247.722 576.879 248.395C577.406 249.067 577.815 249.784 578.105 250.547C578.832 249.929 579.586 249.294 580.367 248.64C581.148 247.986 581.974 247.396 582.846 246.869C583.718 246.324 584.635 245.879 585.598 245.534C586.579 245.189 587.623 245.016 588.731 245.016C590.093 245.016 591.319 245.28 592.409 245.806C593.499 246.333 594.425 247.05 595.188 247.959C595.951 248.867 596.532 249.938 596.932 251.173C597.349 252.409 597.558 253.734 597.558 255.151V274.44H589.521V256.159C589.521 255.324 589.412 254.57 589.194 253.898C588.976 253.226 588.658 252.654 588.24 252.182C587.841 251.709 587.36 251.346 586.797 251.092C586.233 250.837 585.607 250.71 584.917 250.71C584.354 250.71 583.818 250.792 583.309 250.956C582.801 251.119 582.292 251.346 581.783 251.637C581.293 251.909 580.803 252.245 580.312 252.645C579.822 253.044 579.322 253.471 578.814 253.925C578.868 254.307 578.896 254.715 578.896 255.151V274.44H570.858V256.159C570.858 255.324 570.74 254.57 570.504 253.898C570.286 253.226 569.968 252.654 569.551 252.182C569.151 251.709 568.67 251.346 568.107 251.092C567.544 250.837 566.917 250.71 566.227 250.71C565.682 250.71 565.155 250.792 564.647 250.956C564.156 251.119 563.666 251.346 563.175 251.637C562.685 251.909 562.195 252.245 561.704 252.645C561.232 253.026 560.751 253.444 560.26 253.898V274.44H552.223V245.561ZM621.888 270.218C621.379 270.653 620.78 271.153 620.089 271.716C619.417 272.261 618.673 272.779 617.855 273.269C617.038 273.741 616.157 274.141 615.213 274.468C614.268 274.813 613.278 274.985 612.243 274.985C611.099 274.985 610.054 274.767 609.11 274.331C608.184 273.896 607.393 273.314 606.74 272.588C606.086 271.843 605.577 270.98 605.214 270C604.869 269.019 604.696 267.993 604.696 266.921C604.696 265.631 604.978 264.396 605.541 263.216C606.104 262.017 606.994 260.963 608.211 260.055C609.446 259.147 611.044 258.43 613.006 257.903C614.967 257.358 617.347 257.086 620.144 257.086H621.67V255.124C621.67 253.58 621.179 252.39 620.198 251.555C619.236 250.719 617.955 250.302 616.357 250.302C615.703 250.302 615.004 250.383 614.259 250.547C613.514 250.692 612.77 250.91 612.025 251.201C611.299 251.473 610.581 251.8 609.873 252.182C609.183 252.545 608.547 252.944 607.966 253.38L607.475 253.108L606.031 247.959C608.302 246.851 610.427 246.088 612.406 245.67C614.404 245.234 616.321 245.016 618.155 245.016C619.862 245.016 621.424 245.189 622.841 245.534C624.276 245.861 625.493 246.388 626.492 247.114C627.509 247.822 628.299 248.749 628.862 249.893C629.425 251.037 629.707 252.418 629.707 254.034V266.512C629.707 266.821 629.725 267.139 629.761 267.466C629.816 267.793 629.916 268.092 630.061 268.365C630.206 268.637 630.406 268.864 630.66 269.046C630.915 269.209 631.251 269.291 631.668 269.291C631.923 269.291 632.204 269.264 632.513 269.209C632.822 269.155 633.149 269.055 633.494 268.91V272.561C632.404 273.323 631.314 273.923 630.224 274.359C629.153 274.776 628.108 274.985 627.091 274.985C626.365 274.985 625.729 274.858 625.184 274.604C624.639 274.368 624.158 274.041 623.74 273.623C623.323 273.205 622.959 272.706 622.65 272.125C622.36 271.543 622.106 270.908 621.888 270.218ZM621.67 260.355H620.28C618.609 260.355 617.247 260.473 616.193 260.709C615.158 260.945 614.35 261.281 613.769 261.717C613.188 262.135 612.788 262.634 612.57 263.216C612.352 263.797 612.243 264.423 612.243 265.096C612.243 265.804 612.343 266.421 612.543 266.948C612.743 267.475 613.015 267.911 613.36 268.256C613.723 268.601 614.141 268.864 614.613 269.046C615.086 269.209 615.594 269.291 616.139 269.291C616.92 269.291 617.756 269.11 618.646 268.746C619.554 268.383 620.562 267.693 621.67 266.676V260.355ZM640.795 250.847H634.992L635.537 247.278C636.5 246.987 637.326 246.696 638.016 246.406C638.725 246.115 639.333 245.797 639.842 245.452C640.369 245.089 640.823 244.698 641.204 244.281C641.604 243.845 641.976 243.345 642.321 242.782C642.666 242.219 643.011 241.574 643.356 240.848C643.702 240.121 644.092 239.286 644.528 238.341H648.451V245.561H658.75L657.496 250.847H648.833V264.442C648.833 266.222 649.305 267.475 650.249 268.201C651.212 268.928 652.556 269.291 654.282 269.291C655.026 269.291 655.771 269.228 656.516 269.1C657.278 268.973 658.005 268.774 658.695 268.501V272.179C657.369 273.124 655.925 273.832 654.363 274.304C652.819 274.758 651.257 274.985 649.677 274.985C648.17 274.985 646.853 274.776 645.727 274.359C644.619 273.923 643.692 273.305 642.948 272.506C642.221 271.707 641.676 270.735 641.313 269.591C640.968 268.447 640.795 267.148 640.795 265.695V250.847ZM689.454 271.607C688.564 272.243 687.629 272.779 686.648 273.214C685.667 273.632 684.677 273.977 683.679 274.25C682.68 274.504 681.69 274.686 680.709 274.795C679.728 274.922 678.793 274.985 677.903 274.985C675.723 274.985 673.734 274.677 671.936 274.059C670.138 273.441 668.594 272.533 667.304 271.335C666.015 270.136 665.016 268.674 664.308 266.948C663.599 265.204 663.245 263.216 663.245 260.982C663.245 258.511 663.663 256.295 664.498 254.334C665.352 252.354 666.487 250.674 667.904 249.294C669.321 247.913 670.955 246.86 672.808 246.133C674.679 245.389 676.631 245.016 678.665 245.016C680.391 245.016 681.989 245.289 683.461 245.834C684.932 246.378 686.203 247.196 687.275 248.286C688.346 249.357 689.182 250.692 689.781 252.291C690.381 253.889 690.68 255.742 690.68 257.848C690.68 258.466 690.653 259.065 690.599 259.647C690.544 260.21 690.472 260.727 690.381 261.2H671.527C671.527 262.562 671.764 263.751 672.236 264.769C672.726 265.786 673.407 266.63 674.279 267.302C675.169 267.974 676.232 268.474 677.467 268.801C678.72 269.128 680.1 269.291 681.608 269.291C682.098 269.291 682.652 269.273 683.27 269.237C683.887 269.2 684.541 269.137 685.231 269.046C685.922 268.937 686.621 268.792 687.329 268.61C688.056 268.428 688.764 268.201 689.454 267.929V271.607ZM683.324 257.903C683.324 256.632 683.179 255.524 682.888 254.579C682.598 253.616 682.198 252.817 681.69 252.182C681.181 251.546 680.582 251.074 679.891 250.765C679.201 250.456 678.457 250.302 677.657 250.302C676.767 250.302 675.95 250.483 675.205 250.847C674.461 251.21 673.816 251.727 673.271 252.399C672.726 253.072 672.299 253.871 671.991 254.797C671.682 255.723 671.527 256.759 671.527 257.903H683.324Z" fill="#2EC4B6"/>
<path fill-rule="evenodd" clip-rule="evenodd" d="M581.669 24.8592C582.423 24.1449 586.749 22.5178 596.472 19.224C604.052 16.6842 610.561 14.5809 610.958 14.5809C611.355 14.5412 613.736 16.5651 616.355 19.0653C618.935 21.5654 621.475 23.7084 621.991 23.8274C622.507 23.9465 626.912 24.1052 631.714 24.1449C637.907 24.2318 640.459 24.0808 641.501 25.2619C642.362 26.2378 642.191 28.1233 642.191 31.804C642.191 37.4392 642.151 37.9155 641.159 39.86C639.532 43.1142 636.913 44.7412 625.959 49.305C622.705 50.6542 620.959 51.6464 619.728 52.8369C617.03 55.4164 617.189 56.4085 622.348 69.7029C630.92 91.7278 632.23 98.4742 632.269 119.904C632.269 141.73 631.873 143.397 624.57 151.572C621.197 155.382 620.76 156.017 620.363 158.081C619.014 164.589 622.983 179.907 630.087 195.424L631.595 198.678H634.135C637.151 198.678 638.897 199.313 640.286 200.98C643.223 204.472 642.469 209.512 638.699 211.853C637.31 212.687 636.754 212.766 629.809 212.885C621.395 213.044 619.808 212.687 617.863 210.147C616.673 208.559 611.315 196.654 607.862 187.765C604.727 179.748 601.631 170.145 600.322 164.311C599.25 159.549 598.417 152.287 598.774 151.255C598.933 150.937 598.853 150.66 598.615 150.66C598.417 150.66 598.139 150.898 598.02 151.215C597.901 151.493 596.472 153.795 594.845 156.295L591.869 160.819L593.178 163.517C598.377 174.232 596.512 187.923 588.813 196.138C587.702 197.329 586.908 198.281 587.027 198.281C587.1 198.305 588.309 198.3 590.089 198.292C591.226 198.287 592.597 198.281 594.051 198.281C597.822 198.281 601.592 198.44 602.425 198.678C605.997 199.63 608.14 202.289 608.14 205.781C608.14 208.956 606.116 211.655 602.981 212.568C601.989 212.885 593.377 212.964 575.518 212.885L549.523 212.766L547.698 211.853C545.594 210.821 543.015 208.361 541.943 206.377C541.348 205.305 540.991 205.027 540.395 205.186C539.959 205.305 537.578 205.94 535.117 206.575C512.615 212.607 456.657 211.456 446.458 204.789C443.362 202.805 443.005 199.67 445.585 197.527C448.759 194.948 454.554 194.194 480.072 192.924C504.559 191.733 514.837 190.503 522.973 187.923C528.966 186.019 531.069 183.876 531.069 179.748C531.069 170.462 538.014 152.485 547.737 136.571C549.206 134.151 556.865 119.309 564.763 103.554L579.09 74.9016L579.169 51.7654C579.269 30.4607 579.257 27.5326 580.693 25.8156C580.963 25.4921 581.285 25.2115 581.669 24.8592ZM618.446 27.3327C617.213 26.5353 615.979 25.3554 614.172 23.5893C611.99 21.4463 610.005 19.7002 609.807 19.7399C609.707 19.7476 609.395 19.8312 608.914 19.9762L618.291 27.3164L618.446 27.3327ZM636.932 29.2936L637.429 29.3462V29.3039L636.932 29.2936ZM614.533 62.1775V63.5805L617.995 71.5147C617.746 70.882 617.49 70.2386 617.228 69.5838C616.062 66.656 615.17 64.2279 614.533 62.1775ZM598.536 124.945L597.658 140.372C598.432 137.237 598.536 133.366 598.536 125.182C598.536 125.102 598.536 125.023 598.536 124.945ZM569.628 152.305H568.079L569.732 152.993C569.626 152.758 569.592 152.539 569.628 152.305ZM574.732 155.075L575.909 155.565L582.59 158.112L587.6 165.446L590.628 172.169V181.846L588.38 188.88C590.315 185.46 591.392 181.29 591.392 176.653C591.392 165.103 584.632 156.411 574.732 155.075ZM580.987 196.216L585.14 193.141C583.907 194.361 582.516 195.395 580.987 196.216ZM584.268 66.1329L587.496 67.4514H589.061C587.729 67.2124 586.378 66.7422 584.646 65.9725C584.475 65.9068 584.352 65.9281 584.268 66.1329ZM594.121 67.4514H594.177L594.214 67.438C594.183 67.4426 594.152 67.447 594.121 67.4514ZM599.684 34.4469H599.188L597.726 35.6693L599.188 41.3738L600.127 49.4212V55.7369L597.726 60.3208L593.446 62.6637H589.338C590.201 62.8536 591.164 62.9124 592.226 62.8374C595.877 62.5993 597.901 61.4088 599.488 58.5912L600.719 56.4085V50.2574C600.679 45.0587 600.56 43.5507 599.727 40.3362C599.171 38.2726 598.774 36.209 598.853 35.7725C598.921 35.2081 599.243 34.7529 599.684 34.4469ZM586.428 61.2079L588.613 62.4656C587.773 62.1879 587.044 61.7677 586.428 61.2079ZM584.653 28.7489L605.863 20.9561C598.926 23.2524 585.307 28.0287 584.884 28.3912C584.795 28.4668 584.719 28.5726 584.653 28.7489Z" fill="#2EC4B6" stroke="#2EC4B6" stroke-width="2.0384"/>
<path d="M786.96 274.44V234.527H810.363L809.546 238.75H792.3V251.5H807.666L806.848 255.723H792.3V274.44H786.96ZM839.215 271.988C838.525 272.479 837.726 272.915 836.818 273.296C835.928 273.659 835.001 273.968 834.039 274.222C833.076 274.477 832.104 274.667 831.123 274.795C830.161 274.922 829.262 274.985 828.426 274.985C826.574 274.985 824.812 274.677 823.141 274.059C821.47 273.441 820.008 272.533 818.754 271.335C817.501 270.136 816.502 268.655 815.757 266.894C815.013 265.114 814.64 263.07 814.64 260.764C814.64 258.384 815.031 256.223 815.812 254.279C816.611 252.336 817.674 250.683 819 249.321C820.325 247.94 821.851 246.878 823.577 246.133C825.32 245.389 827.146 245.016 829.053 245.016C830.597 245.016 832.032 245.28 833.358 245.806C834.702 246.315 835.864 247.087 836.845 248.122C837.844 249.157 838.625 250.456 839.188 252.018C839.751 253.562 840.032 255.369 840.032 257.44C840.032 257.858 840.014 258.357 839.978 258.938C839.942 259.519 839.869 260.128 839.76 260.764H820.035C820.035 262.326 820.307 263.724 820.852 264.959C821.415 266.176 822.196 267.212 823.195 268.065C824.212 268.901 825.42 269.536 826.819 269.972C828.217 270.408 829.761 270.626 831.45 270.626C831.868 270.626 832.377 270.608 832.976 270.572C833.575 270.535 834.22 270.463 834.91 270.354C835.601 270.245 836.318 270.09 837.063 269.891C837.807 269.673 838.525 269.391 839.215 269.046V271.988ZM835.128 257.549C835.128 256.187 834.938 254.988 834.556 253.952C834.175 252.899 833.657 252.018 833.003 251.31C832.349 250.601 831.587 250.066 830.715 249.702C829.861 249.339 828.944 249.157 827.963 249.157C826.873 249.157 825.847 249.384 824.884 249.839C823.922 250.274 823.077 250.874 822.351 251.637C821.642 252.399 821.079 253.289 820.661 254.307C820.244 255.324 820.035 256.404 820.035 257.549H835.128ZM850.631 249.702H844.8L845.236 247.032C846.653 246.742 847.788 246.378 848.642 245.943C849.495 245.488 850.195 244.925 850.74 244.253C851.303 243.581 851.766 242.773 852.129 241.829C852.51 240.866 852.937 239.722 853.41 238.396H855.807V245.561H866.269L865.179 249.702H855.807V265.831C855.807 266.703 855.934 267.448 856.189 268.065C856.461 268.665 856.833 269.155 857.306 269.536C857.778 269.918 858.35 270.199 859.022 270.381C859.694 270.544 860.439 270.626 861.256 270.626C862.092 270.626 862.918 270.554 863.735 270.408C864.571 270.245 865.361 270.027 866.106 269.754V272.697C864.961 273.441 863.753 274.014 862.482 274.413C861.229 274.795 859.948 274.985 858.641 274.985C857.424 274.985 856.325 274.813 855.344 274.468C854.363 274.123 853.519 273.623 852.81 272.969C852.12 272.315 851.584 271.507 851.203 270.544C850.821 269.564 850.631 268.447 850.631 267.193V249.702ZM893.595 271.988C892.469 272.86 891.125 273.578 889.563 274.141C888.019 274.704 886.33 274.985 884.496 274.985C882.534 274.985 880.754 274.649 879.156 273.977C877.576 273.287 876.222 272.334 875.096 271.117C873.97 269.9 873.098 268.447 872.481 266.757C871.881 265.05 871.582 263.188 871.582 261.172C871.582 258.829 871.981 256.668 872.781 254.688C873.58 252.708 874.669 251.001 876.05 249.566C877.448 248.131 879.092 247.014 880.981 246.215C882.87 245.416 884.895 245.016 887.057 245.016C887.565 245.016 888.11 245.043 888.691 245.098C889.291 245.134 889.881 245.207 890.462 245.316C891.044 245.425 891.607 245.561 892.151 245.725C892.696 245.87 893.178 246.051 893.595 246.269L892.506 250.792L891.906 251.065C891.543 250.792 891.125 250.538 890.653 250.302C890.199 250.066 889.709 249.866 889.182 249.702C888.673 249.539 888.137 249.412 887.574 249.321C887.029 249.212 886.494 249.157 885.967 249.157C884.75 249.157 883.597 249.403 882.507 249.893C881.435 250.365 880.491 251.065 879.673 251.991C878.856 252.899 878.211 254.025 877.739 255.369C877.267 256.695 877.031 258.212 877.031 259.919C877.031 261.663 877.276 263.197 877.766 264.523C878.275 265.849 878.965 266.966 879.837 267.874C880.709 268.783 881.744 269.473 882.943 269.945C884.142 270.399 885.44 270.626 886.839 270.626C887.674 270.626 888.682 270.526 889.863 270.326C891.044 270.109 892.288 269.682 893.595 269.046V271.988ZM901.66 230.794H906.836V250.247C907.49 249.666 908.217 249.067 909.016 248.449C909.815 247.831 910.678 247.268 911.604 246.76C912.53 246.251 913.502 245.834 914.519 245.507C915.536 245.18 916.59 245.016 917.68 245.016C918.987 245.016 920.168 245.27 921.222 245.779C922.293 246.269 923.21 246.969 923.973 247.877C924.736 248.767 925.317 249.848 925.717 251.119C926.135 252.372 926.344 253.771 926.344 255.315V274.44H921.167V255.751C921.167 254.697 921.013 253.771 920.704 252.972C920.413 252.172 920.005 251.51 919.478 250.983C918.969 250.438 918.352 250.038 917.625 249.784C916.899 249.512 916.118 249.375 915.282 249.375C913.756 249.375 912.313 249.775 910.95 250.574C909.588 251.373 908.217 252.427 906.836 253.734V274.44H901.66V230.794ZM935.443 245.561H942.118L943.153 250.383C943.789 249.802 944.498 249.203 945.279 248.585C946.06 247.95 946.886 247.368 947.758 246.842C948.63 246.315 949.538 245.879 950.482 245.534C951.445 245.189 952.417 245.016 953.397 245.016C954.324 245.016 955.205 245.162 956.04 245.452C956.876 245.743 957.629 246.142 958.302 246.651C958.992 247.141 959.591 247.722 960.1 248.395C960.626 249.067 961.035 249.784 961.326 250.547C962.052 249.929 962.806 249.294 963.587 248.64C964.368 247.986 965.194 247.396 966.066 246.869C966.938 246.324 967.855 245.879 968.818 245.534C969.799 245.189 970.843 245.016 971.951 245.016C973.313 245.016 974.539 245.28 975.629 245.806C976.719 246.333 977.645 247.05 978.408 247.959C979.171 248.867 979.752 249.938 980.152 251.173C980.569 252.409 980.778 253.734 980.778 255.151V274.44H972.741V256.159C972.741 255.324 972.632 254.57 972.414 253.898C972.196 253.226 971.878 252.654 971.461 252.182C971.061 251.709 970.58 251.346 970.017 251.092C969.454 250.837 968.827 250.71 968.137 250.71C967.574 250.71 967.038 250.792 966.529 250.956C966.021 251.119 965.512 251.346 965.004 251.637C964.513 251.909 964.023 252.245 963.532 252.645C963.042 253.044 962.543 253.471 962.034 253.925C962.089 254.307 962.116 254.715 962.116 255.151V274.44H954.079V256.159C954.079 255.324 953.961 254.57 953.724 253.898C953.506 253.226 953.189 252.654 952.771 252.182C952.371 251.709 951.89 251.346 951.327 251.092C950.764 250.837 950.137 250.71 949.447 250.71C948.902 250.71 948.375 250.792 947.867 250.956C947.376 251.119 946.886 251.346 946.396 251.637C945.905 251.909 945.415 252.245 944.924 252.645C944.452 253.026 943.971 253.444 943.48 253.898V274.44H935.443V245.561ZM1005.11 270.218C1004.6 270.653 1004 271.153 1003.31 271.716C1002.64 272.261 1001.89 272.779 1001.08 273.269C1000.26 273.741 999.377 274.141 998.433 274.468C997.488 274.813 996.499 274.985 995.463 274.985C994.319 274.985 993.275 274.767 992.33 274.331C991.404 273.896 990.614 273.314 989.96 272.588C989.306 271.843 988.797 270.98 988.434 270C988.089 269.019 987.916 267.993 987.916 266.921C987.916 265.631 988.198 264.396 988.761 263.216C989.324 262.017 990.214 260.963 991.431 260.055C992.666 259.147 994.264 258.43 996.226 257.903C998.188 257.358 1000.57 257.086 1003.36 257.086H1004.89V255.124C1004.89 253.58 1004.4 252.39 1003.42 251.555C1002.46 250.719 1001.18 250.302 999.577 250.302C998.923 250.302 998.224 250.383 997.479 250.547C996.735 250.692 995.99 250.91 995.245 251.201C994.519 251.473 993.801 251.8 993.093 252.182C992.403 252.545 991.767 252.944 991.186 253.38L990.695 253.108L989.251 247.959C991.522 246.851 993.647 246.088 995.627 245.67C997.625 245.234 999.541 245.016 1001.38 245.016C1003.08 245.016 1004.64 245.189 1006.06 245.534C1007.5 245.861 1008.71 246.388 1009.71 247.114C1010.73 247.822 1011.52 248.749 1012.08 249.893C1012.65 251.037 1012.93 252.418 1012.93 254.034V266.512C1012.93 266.821 1012.95 267.139 1012.98 267.466C1013.04 267.793 1013.14 268.092 1013.28 268.365C1013.43 268.637 1013.63 268.864 1013.88 269.046C1014.13 269.209 1014.47 269.291 1014.89 269.291C1015.14 269.291 1015.42 269.264 1015.73 269.209C1016.04 269.155 1016.37 269.055 1016.71 268.91V272.561C1015.62 273.323 1014.53 273.923 1013.44 274.359C1012.37 274.776 1011.33 274.985 1010.31 274.985C1009.59 274.985 1008.95 274.858 1008.4 274.604C1007.86 274.368 1007.38 274.041 1006.96 273.623C1006.54 273.205 1006.18 272.706 1005.87 272.125C1005.58 271.543 1005.33 270.908 1005.11 270.218ZM1004.89 260.355H1003.5C1001.83 260.355 1000.47 260.473 999.414 260.709C998.378 260.945 997.57 261.281 996.989 261.717C996.408 262.135 996.008 262.634 995.79 263.216C995.572 263.797 995.463 264.423 995.463 265.096C995.463 265.804 995.563 266.421 995.763 266.948C995.963 267.475 996.235 267.911 996.58 268.256C996.944 268.601 997.361 268.864 997.834 269.046C998.306 269.209 998.814 269.291 999.359 269.291C1000.14 269.291 1000.98 269.11 1001.87 268.746C1002.77 268.383 1003.78 267.693 1004.89 266.676V260.355ZM1024.02 250.847H1018.21L1018.76 247.278C1019.72 246.987 1020.55 246.696 1021.24 246.406C1021.95 246.115 1022.55 245.797 1023.06 245.452C1023.59 245.089 1024.04 244.698 1024.42 244.281C1024.82 243.845 1025.2 243.345 1025.54 242.782C1025.89 242.219 1026.23 241.574 1026.58 240.848C1026.92 240.121 1027.31 239.286 1027.75 238.341H1031.67V245.561H1041.97L1040.72 250.847H1032.05V264.442C1032.05 266.222 1032.53 267.475 1033.47 268.201C1034.43 268.928 1035.78 269.291 1037.5 269.291C1038.25 269.291 1038.99 269.228 1039.74 269.1C1040.5 268.973 1041.23 268.774 1041.92 268.501V272.179C1040.59 273.124 1039.15 273.832 1037.58 274.304C1036.04 274.758 1034.48 274.985 1032.9 274.985C1031.39 274.985 1030.07 274.776 1028.95 274.359C1027.84 273.923 1026.91 273.305 1026.17 272.506C1025.44 271.707 1024.9 270.735 1024.53 269.591C1024.19 268.447 1024.02 267.148 1024.02 265.695V250.847ZM1072.67 271.607C1071.78 272.243 1070.85 272.779 1069.87 273.214C1068.89 273.632 1067.9 273.977 1066.9 274.25C1065.9 274.504 1064.91 274.686 1063.93 274.795C1062.95 274.922 1062.01 274.985 1061.12 274.985C1058.94 274.985 1056.95 274.677 1055.16 274.059C1053.36 273.441 1051.81 272.533 1050.52 271.335C1049.24 270.136 1048.24 268.674 1047.53 266.948C1046.82 265.204 1046.47 263.216 1046.47 260.982C1046.47 258.511 1046.88 256.295 1047.72 254.334C1048.57 252.354 1049.71 250.674 1051.12 249.294C1052.54 247.913 1054.18 246.86 1056.03 246.133C1057.9 245.389 1059.85 245.016 1061.89 245.016C1063.61 245.016 1065.21 245.289 1066.68 245.834C1068.15 246.378 1069.42 247.196 1070.5 248.286C1071.57 249.357 1072.4 250.692 1073 252.291C1073.6 253.889 1073.9 255.742 1073.9 257.848C1073.9 258.466 1073.87 259.065 1073.82 259.647C1073.76 260.21 1073.69 260.727 1073.6 261.2H1054.75C1054.75 262.562 1054.98 263.751 1055.46 264.769C1055.95 265.786 1056.63 266.63 1057.5 267.302C1058.39 267.974 1059.45 268.474 1060.69 268.801C1061.94 269.128 1063.32 269.291 1064.83 269.291C1065.32 269.291 1065.87 269.273 1066.49 269.237C1067.11 269.2 1067.76 269.137 1068.45 269.046C1069.14 268.937 1069.84 268.792 1070.55 268.61C1071.28 268.428 1071.98 268.201 1072.67 267.929V271.607ZM1066.54 257.903C1066.54 256.632 1066.4 255.524 1066.11 254.579C1065.82 253.616 1065.42 252.817 1064.91 252.182C1064.4 251.546 1063.8 251.074 1063.11 250.765C1062.42 250.456 1061.68 250.302 1060.88 250.302C1059.99 250.302 1059.17 250.483 1058.43 250.847C1057.68 251.21 1057.04 251.727 1056.49 252.399C1055.95 253.072 1055.52 253.871 1055.21 254.797C1054.9 255.723 1054.75 256.759 1054.75 257.903H1066.54Z" fill="#FF9F1C"/>
<path fill-rule="evenodd" clip-rule="evenodd" d="M964.89 24.8592C965.644 24.1449 969.97 22.5178 979.693 19.224C987.273 16.6842 993.782 14.5809 994.179 14.5809C994.576 14.5412 996.957 16.5651 999.576 19.0653C1002.16 21.5654 1004.7 23.7084 1005.21 23.8274C1005.73 23.9465 1010.13 24.1052 1014.93 24.1449C1021.13 24.2318 1023.68 24.0808 1024.72 25.2619C1025.58 26.2378 1025.41 28.1233 1025.41 31.804C1025.41 37.4392 1025.37 37.9155 1024.38 39.86C1022.75 43.1142 1020.13 44.7412 1009.18 49.305C1005.93 50.6542 1004.18 51.6464 1002.95 52.8369C1000.25 55.4164 1000.41 56.4085 1005.57 69.7029C1014.14 91.7278 1015.45 98.4742 1015.49 119.904C1015.49 141.73 1015.09 143.397 1007.79 151.572C1004.42 155.382 1003.98 156.017 1003.58 158.081C1002.24 164.589 1006.2 179.907 1013.31 195.424L1014.82 198.678H1017.36C1020.37 198.678 1022.12 199.313 1023.51 200.98C1026.44 204.472 1025.69 209.512 1021.92 211.853C1020.53 212.687 1019.97 212.766 1013.03 212.885C1004.62 213.044 1003.03 212.687 1001.08 210.147C999.894 208.559 994.536 196.654 991.083 187.765C987.948 179.748 984.852 170.145 983.543 164.311C982.471 159.549 981.638 152.287 981.995 151.255C982.154 150.937 982.074 150.66 981.836 150.66C981.638 150.66 981.36 150.898 981.241 151.215C981.122 151.493 979.693 153.795 978.066 156.295L975.09 160.819L976.399 163.517C981.598 174.232 979.733 187.923 972.034 196.138C970.922 197.329 970.129 198.281 970.248 198.281C970.32 198.305 971.53 198.3 973.31 198.292C974.447 198.287 975.818 198.281 977.272 198.281C981.043 198.281 984.813 198.44 985.646 198.678C989.218 199.63 991.361 202.289 991.361 205.781C991.361 208.956 989.337 211.655 986.202 212.568C985.21 212.885 976.598 212.964 958.739 212.885L932.744 212.766L930.919 211.853C928.815 210.821 926.236 208.361 925.164 206.377C924.569 205.305 924.212 205.027 923.616 205.186C923.18 205.305 920.799 205.94 918.338 206.575C895.836 212.607 839.878 211.456 829.679 204.789C826.583 202.805 826.226 199.67 828.805 197.527C831.98 194.948 837.775 194.194 863.293 192.924C887.779 191.733 898.058 190.503 906.194 187.923C912.187 186.019 914.29 183.876 914.29 179.748C914.29 170.462 921.235 152.485 930.958 136.571C932.427 134.151 940.086 119.309 947.984 103.554L962.311 74.9016L962.39 51.7654C962.49 30.4607 962.478 27.5326 963.914 25.8156C964.184 25.4921 964.506 25.2115 964.89 24.8592ZM1001.67 27.3327C1000.43 26.5353 999.2 25.3554 997.393 23.5893C995.211 21.4463 993.226 19.7002 993.028 19.7399C992.927 19.7476 992.616 19.8312 992.135 19.9762L1001.51 27.3164L1001.67 27.3327ZM1020.15 29.2936L1020.65 29.3462V29.3039L1020.15 29.2936ZM997.754 62.1775V63.5805L1001.22 71.5147C1000.97 70.882 1000.71 70.2386 1000.45 69.5838C999.283 66.656 998.391 64.2279 997.754 62.1775ZM981.757 124.945L980.879 140.372C981.653 137.237 981.757 133.366 981.757 125.182C981.757 125.102 981.757 125.023 981.757 124.945ZM952.849 152.305H951.3L952.953 152.993C952.847 152.758 952.813 152.539 952.849 152.305ZM957.953 155.075L959.13 155.565L965.811 158.112L970.821 165.446L973.849 172.169V181.846L971.601 188.88C973.536 185.46 974.613 181.29 974.613 176.653C974.613 165.103 967.853 156.411 957.953 155.075ZM964.208 196.216L968.361 193.141C967.128 194.361 965.737 195.395 964.208 196.216ZM967.489 66.1329L970.717 67.4514H972.282C970.95 67.2124 969.599 66.7422 967.867 65.9725C967.696 65.9068 967.573 65.9281 967.489 66.1329ZM977.342 67.4514H977.398L977.435 67.438C977.404 67.4426 977.373 67.447 977.342 67.4514ZM982.905 34.4469H982.409L980.947 35.6693L982.409 41.3738L983.348 49.4212V55.7369L980.947 60.3208L976.667 62.6637H972.559C973.422 62.8536 974.385 62.9124 975.447 62.8374C979.098 62.5993 981.122 61.4088 982.709 58.5912L983.94 56.4085V50.2574C983.9 45.0587 983.781 43.5507 982.947 40.3362C982.392 38.2726 981.995 36.209 982.074 35.7725C982.142 35.2081 982.464 34.7529 982.905 34.4469ZM969.649 61.2079L971.834 62.4656C970.994 62.1879 970.265 61.7677 969.649 61.2079ZM967.874 28.7489L989.084 20.9561C982.147 23.2524 968.528 28.0287 968.105 28.3912C968.016 28.4668 967.94 28.5726 967.874 28.7489Z" fill="#FF9F1C" stroke="#FF9F1C" stroke-width="2.0384"/>
<rect x="0.36451" y="0.36451" width="1090.64" height="309.12" rx="3.28059" stroke="#9747FF" stroke-width="0.72902" stroke-dasharray="7.29 3.65"/>
</svg>
