<svg width="199" height="199" viewBox="0 0 199 199" fill="none" xmlns="http://www.w3.org/2000/svg">
<path d="M153.004 4.72643C143.281 8.02025 138.955 9.64732 138.201 10.3616C135.781 12.584 135.82 11.949 135.701 37.2678L135.622 60.404L121.295 89.0563C113.397 104.811 105.738 119.653 104.27 122.074C94.5464 137.987 87.6013 155.965 87.6013 165.251C87.6013 169.378 85.4979 171.521 79.5052 173.426C71.3695 176.005 61.0907 177.236 36.6042 178.426C11.0859 179.696 5.29166 180.45 2.11675 183.029C-0.462865 185.172 -0.105687 188.308 2.98985 190.292C13.1893 196.959 69.1471 198.11 91.6493 192.078C94.1098 191.443 96.491 190.808 96.9276 190.689C97.5229 190.53 97.88 190.808 98.4753 191.879C99.5469 193.863 102.126 196.324 104.23 197.356L106.055 198.268L132.05 198.387C149.909 198.467 158.521 198.387 159.513 198.07C162.648 197.157 164.672 194.459 164.672 191.284C164.672 187.792 162.529 185.133 158.957 184.18C158.124 183.942 154.354 183.784 150.584 183.784C146.853 183.784 143.678 183.823 143.559 183.784C143.44 183.784 144.234 182.831 145.345 181.641C153.044 173.426 154.909 159.735 149.71 149.02L148.401 146.321L151.377 141.797C153.004 139.297 154.433 136.995 154.552 136.718C154.671 136.4 154.949 136.162 155.148 136.162C155.386 136.162 155.465 136.44 155.306 136.757C154.949 137.789 155.783 145.051 156.854 149.813C158.164 155.647 161.259 165.251 164.394 173.267C167.847 182.156 173.205 194.062 174.395 195.649C176.34 198.189 177.928 198.546 186.341 198.387C193.286 198.268 193.842 198.189 195.231 197.356C199.001 195.014 199.755 189.974 196.818 186.482C195.429 184.815 193.683 184.18 190.667 184.18H188.127L186.619 180.926C179.515 165.41 175.546 150.091 176.896 143.583C177.293 141.519 177.729 140.884 181.102 137.075C188.405 128.9 188.802 127.233 188.802 105.406C188.762 83.9767 187.452 77.2303 178.88 55.2053C173.721 41.9109 173.562 40.9188 176.261 38.3393C177.491 37.1488 179.237 36.1567 182.491 34.8074C193.445 30.2437 196.064 28.6166 197.691 25.3624C198.684 23.4179 198.723 22.9417 198.723 17.3064C198.723 9.1711 199.557 9.80605 188.246 9.64731C183.444 9.60764 179.039 9.4489 178.523 9.32983C178.007 9.21078 175.467 7.06781 172.887 4.56769C170.268 2.06755 167.887 0.0436401 167.49 0.0833282C167.093 0.0833282 160.585 2.1866 153.004 4.72643ZM170.705 9.09174C176.023 14.2904 176.38 14.4095 186.341 14.6476L193.961 14.8063V18.5764C193.961 21.0765 193.762 22.6639 193.366 23.4179C192.572 24.9656 189.833 26.6323 184.436 28.815C175.308 32.5453 171.935 34.7677 170.506 37.9425C169.038 41.1172 169.871 45.3238 173.76 55.0862C179.396 69.1743 182.055 78.024 183.484 87.5483C184.079 91.477 184.198 94.5724 184.158 105.406C184.119 112.589 183.92 120.01 183.682 121.875C183.047 126.638 181.341 129.892 177.293 134.257C173.046 138.821 172.411 140.289 172.213 146.004C171.895 154.933 174.911 166.044 181.896 181.76C183.325 184.934 184.754 187.831 185.071 188.149C185.468 188.585 186.659 188.784 189.079 188.823C191.619 188.903 192.651 189.101 193.207 189.577C194.199 190.451 194.159 191.919 193.167 192.911C192.453 193.625 191.857 193.705 185.865 193.705C180.269 193.705 179.237 193.625 178.523 193.03C176.935 191.681 168.879 172.791 165.029 161.322C160.029 146.48 159.831 144.893 159.831 119.137C159.831 100.327 159.751 98.2631 159.156 97.5885C158.243 96.5567 156.854 96.7154 155.902 97.906C155.108 98.9378 155.068 99.414 155.068 110.684C155.068 124.098 154.79 125.923 151.734 131.916C149.988 135.289 145.742 142.115 145.345 142.115C145.226 142.115 144.234 141.4 143.162 140.567C139.352 137.551 134.392 135.765 129.788 135.765C127.685 135.765 127.248 135.884 126.732 136.638C125.938 137.789 125.938 138.265 126.811 139.297C127.327 139.972 128.2 140.21 130.859 140.527C140.979 141.678 147.925 150.448 147.925 162.155C147.925 173.862 141.059 182.593 130.859 183.784C128.24 184.101 127.327 184.379 126.811 185.014C125.899 186.085 125.899 186.641 126.851 187.792L127.605 188.744L143.4 188.943L159.235 189.141L159.751 190.292C160.267 191.284 160.227 191.522 159.553 192.474L158.759 193.506H132.764H106.77L105.143 192.355C103.357 191.125 101.888 188.585 101.888 186.76C101.888 184.418 99.6659 183.466 97.6022 184.934C94.1098 187.395 84.466 189.3 68.7502 190.609C61.0114 191.244 34.3421 191.244 27.2779 190.609C17.5548 189.697 8.90313 188.149 6.52194 186.919C3.78358 185.411 12.594 184.299 36.0089 183.188C67.2818 181.68 79.2274 179.855 86.5297 175.45C90.6174 172.989 92.3636 169.854 92.3636 164.973C92.3636 156.639 99.1103 139.734 108.675 123.979C110.223 121.399 118.12 106.081 126.176 89.9293L140.86 60.6024L140.702 55.9196C140.583 51.8718 140.662 51.2765 141.178 51.4749C144.393 52.9036 146.297 53.3004 149.195 53.102C157.846 52.5464 162.212 46.8318 162.212 36.1567C162.212 30.1246 160.624 21.8305 159.156 20.1638C158.005 18.8938 155.584 19.6082 155.386 21.2749C155.306 21.7115 155.703 23.7751 156.259 25.8387C157.092 29.0531 157.211 30.5611 157.251 35.7598V41.9109L156.021 44.0936C154.433 46.9112 152.409 48.1017 148.758 48.3398C145.385 48.578 143.003 47.4668 141.694 45.0857C140.821 43.538 140.781 43.2602 140.781 28.9737C140.781 16.0365 140.86 14.3698 141.416 13.8936C141.972 13.4174 165.307 5.32169 166.339 5.24232C166.538 5.20264 168.522 6.94876 170.705 9.09174Z" fill="#FF9F1C"/>
</svg>
