<svg width="199" height="199" viewBox="0 0 199 199" fill="none" xmlns="http://www.w3.org/2000/svg">
<path d="M153.266 4.86229C143.543 8.15611 139.217 9.78319 138.463 10.4975C136.042 12.7198 136.082 12.0849 135.963 37.4037L135.883 60.5398L121.556 89.1922C113.659 104.947 105.999 119.789 104.531 122.21C94.8079 138.123 87.8627 156.1 87.8627 165.387C87.8627 169.514 85.7594 171.657 79.7667 173.562C71.631 176.141 61.3522 177.371 36.8657 178.562C11.3474 179.832 5.55314 180.586 2.37823 183.165C-0.20139 185.308 0.155787 188.443 3.25133 190.428C13.4507 197.095 69.4086 198.246 91.9108 192.213C94.3713 191.579 96.7525 190.944 97.189 190.824C97.7843 190.666 98.1415 190.944 98.7368 192.015C99.8083 193.999 102.388 196.46 104.491 197.492L106.317 198.404L132.312 198.523C150.17 198.603 158.782 198.523 159.775 198.206C162.91 197.293 164.934 194.595 164.934 191.42C164.934 187.928 162.791 185.269 159.219 184.316C158.385 184.078 154.615 183.919 150.845 183.919C147.115 183.919 143.94 183.959 143.821 183.919C143.702 183.919 144.495 182.967 145.606 181.776C153.306 173.562 155.171 159.87 149.972 149.156L148.662 146.457L151.639 141.933C153.266 139.433 154.695 137.131 154.814 136.853C154.933 136.536 155.211 136.298 155.409 136.298C155.647 136.298 155.726 136.576 155.568 136.893C155.211 137.925 156.044 145.187 157.116 149.949C158.425 155.783 161.521 165.387 164.656 173.403C168.109 182.292 173.466 194.198 174.657 195.785C176.602 198.325 178.189 198.682 186.603 198.523C193.548 198.404 194.103 198.325 195.492 197.492C199.262 195.15 200.017 190.11 197.08 186.618C195.691 184.951 193.945 184.316 190.928 184.316H188.388L186.88 181.062C179.776 165.545 175.808 150.227 177.157 143.719C177.554 141.655 177.991 141.02 181.364 137.211C188.666 129.036 189.063 127.369 189.063 105.542C189.023 84.1125 187.714 77.3661 179.141 55.3412C173.982 42.0468 173.823 41.0547 176.522 38.4752C177.752 37.2847 179.499 36.2925 182.753 34.9433C193.706 30.3795 196.326 28.7524 197.953 25.4983C198.945 23.5538 198.985 23.0775 198.985 17.4423C198.985 9.30696 199.818 9.94191 188.507 9.78317C183.705 9.7435 179.3 9.58476 178.784 9.4657C178.268 9.34665 175.728 7.20367 173.149 4.70355C170.53 2.20341 168.148 0.179504 167.751 0.219193C167.355 0.219193 160.846 2.32246 153.266 4.86229ZM170.966 9.2276C176.284 14.4263 176.641 14.5453 186.603 14.7835L194.222 14.9422V18.7122C194.222 21.2124 194.024 22.7998 193.627 23.5538C192.833 25.1015 190.095 26.7682 184.698 28.9509C175.57 32.6812 172.196 34.9036 170.768 38.0783C169.299 41.2531 170.133 45.4597 174.022 55.2221C179.657 69.3102 182.316 78.1598 183.745 87.6841C184.34 91.6129 184.459 94.7083 184.42 105.542C184.38 112.725 184.182 120.146 183.944 122.011C183.309 126.773 181.602 130.028 177.554 134.393C173.308 138.957 172.673 140.425 172.474 146.14C172.157 155.069 175.173 166.18 182.158 181.895C183.586 185.07 185.015 187.967 185.333 188.285C185.729 188.721 186.92 188.92 189.341 188.959C191.881 189.039 192.913 189.237 193.468 189.713C194.46 190.586 194.421 192.055 193.429 193.047C192.714 193.761 192.119 193.841 186.126 193.841C180.531 193.841 179.499 193.761 178.784 193.166C177.197 191.817 169.14 172.927 165.291 161.458C160.29 146.616 160.092 145.028 160.092 119.273C160.092 100.463 160.013 98.399 159.417 97.7243C158.505 96.6925 157.116 96.8513 156.163 98.0418C155.369 99.0736 155.33 99.5498 155.33 110.82C155.33 124.234 155.052 126.059 151.996 132.052C150.25 135.425 146.003 142.25 145.606 142.25C145.487 142.25 144.495 141.536 143.424 140.703C139.614 137.687 134.653 135.901 130.049 135.901C127.946 135.901 127.509 136.02 126.994 136.774C126.2 137.925 126.2 138.401 127.073 139.433C127.589 140.108 128.462 140.346 131.121 140.663C141.241 141.814 148.186 150.584 148.186 162.291C148.186 173.998 141.32 182.729 131.121 183.919C128.502 184.237 127.589 184.515 127.073 185.15C126.16 186.221 126.16 186.777 127.113 187.928L127.867 188.88L143.662 189.078L159.497 189.277L160.013 190.428C160.529 191.42 160.489 191.658 159.814 192.61L159.02 193.642H133.026H107.031L105.404 192.491C103.618 191.261 102.15 188.721 102.15 186.896C102.15 184.554 99.9274 183.602 97.8637 185.07C94.3713 187.531 84.7275 189.436 69.0117 190.745C61.2729 191.38 34.6036 191.38 27.5394 190.745C17.8162 189.832 9.1646 188.285 6.78342 187.054C4.04505 185.546 12.8554 184.435 36.2704 183.324C67.5433 181.816 79.4889 179.991 86.7912 175.586C90.8789 173.125 92.6251 169.99 92.6251 165.109C92.6251 156.775 99.3718 139.869 108.936 124.115C110.484 121.535 118.382 106.217 126.438 90.0652L141.122 60.7383L140.963 56.0555C140.844 52.0076 140.923 51.4124 141.439 51.6108C144.654 53.0394 146.559 53.4363 149.456 53.2379C158.108 52.6823 162.473 46.9677 162.473 36.2925C162.473 30.2605 160.886 21.9664 159.417 20.2996C158.266 19.0297 155.846 19.744 155.647 21.4108C155.568 21.8473 155.965 23.9109 156.52 25.9745C157.354 29.189 157.473 30.697 157.512 35.8957V42.0468L156.282 44.2295C154.695 47.0471 152.671 48.2376 149.019 48.4757C145.646 48.7138 143.265 47.6026 141.955 45.2216C141.082 43.6739 141.043 43.3961 141.043 29.1096C141.043 16.1724 141.122 14.5057 141.678 14.0294C142.233 13.5532 165.569 5.45755 166.601 5.37819C166.799 5.3385 168.783 7.08463 170.966 9.2276Z" fill="#2EC4B6"/>
</svg>
